<?xml version="1.0" encoding="UTF-8" standalone="no"?>
<svg viewBox="0 0 3317 760"
     preserveAspectRatio="xMidYMid meet"
     version="1.1"
     baseProfile="full"
     xmlns="http://www.w3.org/2000/svg"
     xmlns:xlink="http://www.w3.org/1999/xlink"
     xmlns:ev="http://www.w3.org/2001/xml-events"
     xml:space="preserve">
<title>xadc_imp</title>
<desc>Nlview schematic (SVG)</desc>
<clipPath id="clippingbbox">
<rect x="0" y="0" width="3317" height="760" />
</clipPath>
<g stroke="#102235"
   stroke-width="1"
   stroke-linecap="butt"
   stroke-linejoin="miter"
   stroke-miterlimit="4"
   stroke-dasharray="none"
   stroke-dashoffset="0"
   fill="none"
   font-family="Helvetica"
   font-style="normal"
   font-size="12"
   writing-mode="lr-tb"
   cursor="crosshair"
   clip-path="url(#clippingbbox)">
<path d="M0 0h3316v761h-3316z" stroke="none" fill="white" />
<path d="M106 140l-7 7h-14v-14h14z" stroke="none" fill="#ddd4d0" />
<g stroke="#2a5e6f" stroke-width="3">
<path d="M106 140l-7 7h-14v-14h14z" />
<text x="81" y="140" fill="black" stroke-width="0" text-anchor="end" dy="4.4">Vp_Vn_0</text>
<path d="M106 170l-7 7h-14v-14h14z" stroke="none" fill="#ddd4d0" />
<path d="M106 170l-7 7h-14v-14h14z" />
<text x="81" y="170" fill="black" stroke-width="0" text-anchor="end" dy="4.4">Vaux1_0</text>
<path d="M106 200l-7 7h-14v-14h14z" stroke="none" fill="#ddd4d0" />
<path d="M106 200l-7 7h-14v-14h14z" />
<text x="81" y="200" fill="black" stroke-width="0" text-anchor="end" dy="4.4">Vaux9_0</text>
<path d="M303 102h206l3 1l2 1l1 2l1 3v162l-1 3l-1 2l-2 1l-3 1h-206l-3 -1l-2 -1l-1 -2l-1 -3v-162l1 -3l1 -2l2 -1z" stroke="none" fill="#edf6fe" />
<text x="406" y="100" fill="black" stroke-width="0" text-anchor="middle" dy="-1.6">xadc_wiz_0</text>
<text x="406" y="280" fill="#41619f" stroke-width="0" text-anchor="middle" dy="9.6">XADC Wizard</text>
<path d="M516 121h10v18h-10z" stroke="none" fill="#edf6fe" />
</g>
<g stroke="black" stroke-width="3">
<path d="M506 125v10" />
<path d="M501 130h10" />
</g>
<g stroke="black">
<path d="M499 123h14v14h-14z" />
<text x="499" y="130" fill="black" stroke-width="0" font-size="10" text-anchor="end" dy="3.66667">M_AXIS</text>
<path d="M286 121h10v18h-10z" stroke="none" fill="#edf6fe" />
</g>
<g stroke="black" stroke-width="3">
<path d="M305 125v10" />
<path d="M300 130h10" />
</g>
<g stroke="black">
<path d="M298 123h14v14h-14z" />
<text x="313" y="130" fill="black" stroke-width="0" font-size="10" dy="3.66667">s_axi_lite</text>
<path d="M286 141h10v18h-10z" stroke="none" fill="#edf6fe" />
</g>
<g stroke="black" stroke-width="3">
<path d="M305 145v10" />
<path d="M300 150h10" />
</g>
<g stroke="black">
<path d="M298 143h14v14h-14z" />
<text x="313" y="150" fill="black" stroke-width="0" font-size="10" dy="3.66667">Vp_Vn</text>
<path d="M286 161h10v18h-10z" stroke="none" fill="#edf6fe" />
</g>
<g stroke="black" stroke-width="3">
<path d="M305 165v10" />
<path d="M300 170h10" />
</g>
<g stroke="black">
<path d="M298 163h14v14h-14z" />
<text x="313" y="170" fill="black" stroke-width="0" font-size="10" dy="3.66667">Vaux1</text>
<path d="M286 181h10v18h-10z" stroke="none" fill="#edf6fe" />
</g>
<g stroke="black" stroke-width="3">
<path d="M305 185v10" />
<path d="M300 190h10" />
</g>
<g stroke="black">
<path d="M298 183h14v14h-14z" />
<text x="313" y="190" fill="black" stroke-width="0" font-size="10" dy="3.66667">Vaux9</text>
</g>
<g stroke="black" stroke-width="3">
<path d="M286 210h10" />
<text x="298" y="210" fill="black" stroke-width="0" font-size="10" dy="3.66667">s_axis_aclk</text>
<path d="M286 230h10" />
<text x="298" y="230" fill="black" stroke-width="0" font-size="10" dy="3.66667">s_axi_aclk</text>
<circle cx="293" cy="250" r="3" />
<path d="M286 250h4" />
<text x="298" y="250" fill="black" stroke-width="0" font-size="10" dy="3.66667">s_axi_aresetn</text>
<path d="M526 150h-10" />
<text x="514" y="150" fill="black" stroke-width="0" font-size="10" text-anchor="end" dy="3.66667">ip2intc_irpt</text>
</g>
<g stroke="black" stroke-width="5">
<path d="M526 170h-10" />
<text x="514" y="170" fill="black" stroke-width="0" font-size="10" text-anchor="end" dy="3.66667">channel_out[4:0]</text>
</g>
<g stroke="black" stroke-width="3">
<path d="M526 190h-10" />
<text x="514" y="190" fill="black" stroke-width="0" font-size="10" text-anchor="end" dy="3.66667">eoc_out</text>
<path d="M526 210h-10" />
<text x="514" y="210" fill="black" stroke-width="0" font-size="10" text-anchor="end" dy="3.66667">alarm_out</text>
<path d="M526 230h-10" />
<text x="514" y="230" fill="black" stroke-width="0" font-size="10" text-anchor="end" dy="3.66667">eos_out</text>
<path d="M526 250h-10" />
<text x="514" y="250" fill="black" stroke-width="0" font-size="10" text-anchor="end" dy="3.66667">busy_out</text>
</g>
<g stroke="#41619f">
<path d="M303 102h206" />
<path d="M509,102 A6.83537,6.83537 1.61957 0,1 516,109" />
<path d="M516 109v162" />
<path d="M516,271 A6.83537,6.83537 1.61957 0,1 509,278" />
<path d="M509 278h-206" />
<path d="M303,278 A6.83537,6.83537 1.61957 0,1 296,271" />
<path d="M296 271v-162" />
<path d="M296,109 A6.83537,6.83537 1.61957 0,1 303,102" />
<path d="M243 322h326l3 1l2 1l1 2l1 3v162l-1 3l-1 2l-2 1l-3 1h-326l-3 -1l-2 -1l-1 -2l-1 -3v-162l1 -3l1 -2l2 -1z" stroke="none" fill="#edf6fe" />
<text x="406" y="320" fill="black" stroke-width="0" text-anchor="middle" dy="-1.6">axis_trigger_unit_0</text>
<text x="406" y="500" fill="#41619f" stroke-width="0" text-anchor="middle" dy="9.6">axis_trigger_unit_v1_0</text>
<path d="M576 341h10v18h-10z" stroke="none" fill="#edf6fe" />
</g>
<g stroke="black" stroke-width="3">
<path d="M566 345v10" />
<path d="M561 350h10" />
</g>
<g stroke="black">
<path d="M559 343h14v14h-14z" />
<text x="559" y="350" fill="black" stroke-width="0" font-size="10" text-anchor="end" dy="3.66667">m_axis</text>
<path d="M576 361h10v58h-10z" stroke="none" fill="#edf6fe" />
</g>
<g stroke="black" stroke-width="3">
<path d="M561 370h10" />
</g>
<g stroke="black">
<path d="M559 363h14v14h-14z" />
<text x="559" y="370" fill="black" stroke-width="0" font-size="10" text-anchor="end" dy="3.66667">m_axis_fft_config</text>
</g>
<g stroke="black" stroke-width="3">
<path d="M586 390h-10" />
<path d="M555 385l8 5l-8 5z" stroke="none" fill="black" />
<text x="554" y="390" fill="black" stroke-width="0" font-size="10" text-anchor="end" dy="3.66667">m_axis_fft_config_tdata[15:0]</text>
</g>
<g stroke="black" stroke-width="2">
<path d="M586 410h-10" />
<path d="M555 405l8 5l-8 5z" stroke="none" fill="black" />
<text x="554" y="410" fill="black" stroke-width="0" font-size="10" text-anchor="end" dy="3.66667">m_axis_fft_config_tvalid</text>
<path d="M226 351h10v18h-10z" stroke="none" fill="#edf6fe" />
</g>
<g stroke="black" stroke-width="3">
<path d="M245 355v10" />
<path d="M240 360h10" />
</g>
<g stroke="black">
<path d="M238 353h14v14h-14z" />
<text x="253" y="360" fill="black" stroke-width="0" font-size="10" dy="3.66667">s_axis</text>
<path d="M226 371h10v18h-10z" stroke="none" fill="#edf6fe" />
</g>
<g stroke="black" stroke-width="3">
<path d="M245 375v10" />
<path d="M240 380h10" />
</g>
<g stroke="black">
<path d="M238 373h14v14h-14z" />
<text x="253" y="380" fill="black" stroke-width="0" font-size="10" dy="3.66667">s_axi</text>
</g>
<g stroke="black" stroke-width="3">
<path d="M226 400h10" />
<text x="238" y="400" fill="black" stroke-width="0" font-size="10" dy="3.66667">aclk</text>
<circle cx="233" cy="420" r="3" />
<path d="M226 420h4" />
<text x="238" y="420" fill="black" stroke-width="0" font-size="10" dy="3.66667">aresetn</text>
</g>
<g stroke="black" stroke-width="5">
<path d="M226 440h10" />
<text x="238" y="440" fill="black" stroke-width="0" font-size="10" dy="3.66667">channel_id[4:0]</text>
</g>
<g stroke="black" stroke-width="3">
<path d="M226 460h10" />
<text x="238" y="460" fill="black" stroke-width="0" font-size="10" dy="3.66667">frame_done</text>
</g>
<g stroke="black" stroke-width="5">
<path d="M586 430h-10" />
<text x="574" y="430" fill="black" stroke-width="0" font-size="10" text-anchor="end" dy="3.66667">decim_factor_out[1:0]</text>
<path d="M586 450h-10" />
<text x="574" y="450" fill="black" stroke-width="0" font-size="10" text-anchor="end" dy="3.66667">packet_size_out[15:0]</text>
</g>
<g stroke="black" stroke-width="3">
<path d="M586 470h-10" />
<text x="574" y="470" fill="black" stroke-width="0" font-size="10" text-anchor="end" dy="3.66667">fft_chan_sel_out</text>
</g>
<g stroke="#41619f">
<path d="M243 322h326" />
<path d="M569,322 A6.83537,6.83537 1.61957 0,1 576,329" />
<path d="M576 329v162" />
<path d="M576,491 A6.83537,6.83537 1.61957 0,1 569,498" />
<path d="M569 498h-326" />
<path d="M243,498 A6.83537,6.83537 1.61957 0,1 236,491" />
<path d="M236 491v-162" />
<path d="M236,329 A6.83537,6.83537 1.61957 0,1 243,322" />
<path d="M303 542h206l3 1l2 1l1 2l1 3v122l-1 3l-1 2l-2 1l-3 1h-206l-3 -1l-2 -1l-1 -2l-1 -3v-122l1 -3l1 -2l2 -1z" stroke="none" fill="#edf6fe" />
<text x="406" y="540" fill="black" stroke-width="0" text-anchor="middle" dy="-1.6">axis_decimator_0</text>
<text x="406" y="680" fill="#41619f" stroke-width="0" text-anchor="middle" dy="9.6">axis_decimator_v1_0</text>
<path d="M516 601h10v18h-10z" stroke="none" fill="#edf6fe" />
</g>
<g stroke="black" stroke-width="3">
<path d="M506 605v10" />
<path d="M501 610h10" />
</g>
<g stroke="black">
<path d="M499 603h14v14h-14z" />
<text x="499" y="610" fill="black" stroke-width="0" font-size="10" text-anchor="end" dy="3.66667">m_axis</text>
<path d="M286 561h10v18h-10z" stroke="none" fill="#edf6fe" />
</g>
<g stroke="black" stroke-width="3">
<path d="M305 565v10" />
<path d="M300 570h10" />
</g>
<g stroke="black">
<path d="M298 563h14v14h-14z" />
<text x="313" y="570" fill="black" stroke-width="0" font-size="10" dy="3.66667">s_axis</text>
</g>
<g stroke="black" stroke-width="3">
<path d="M286 590h10" />
<text x="298" y="590" fill="black" stroke-width="0" font-size="10" dy="3.66667">aclk</text>
<circle cx="293" cy="610" r="3" />
<path d="M286 610h4" />
<text x="298" y="610" fill="black" stroke-width="0" font-size="10" dy="3.66667">aresetn</text>
</g>
<g stroke="black" stroke-width="5">
<path d="M286 630h10" />
<text x="298" y="630" fill="black" stroke-width="0" font-size="10" dy="3.66667">decim_sel[1:0]</text>
<path d="M286 650h10" />
<text x="298" y="650" fill="black" stroke-width="0" font-size="10" dy="3.66667">channel_id[4:0]</text>
</g>
<g stroke="#41619f">
<path d="M303 542h206" />
<path d="M509,542 A6.83537,6.83537 1.61957 0,1 516,549" />
<path d="M516 549v122" />
<path d="M516,671 A6.83537,6.83537 1.61957 0,1 509,678" />
<path d="M509 678h-206" />
<path d="M303,678 A6.83537,6.83537 1.61957 0,1 296,671" />
<path d="M296 671v-122" />
<path d="M296,549 A6.83537,6.83537 1.61957 0,1 303,542" />
<path d="M733 202h266l3 1l2 1l1 2l1 3v102l-1 3l-1 2l-2 1l-3 1h-266l-3 -1l-2 -1l-1 -2l-1 -3v-102l1 -3l1 -2l2 -1z" stroke="none" fill="#edf6fe" />
<text x="866" y="200" fill="black" stroke-width="0" text-anchor="middle" dy="-1.6">tlast_generator_0</text>
<text x="866" y="320" fill="#41619f" stroke-width="0" text-anchor="middle" dy="9.6">tlast_generator_v1_0</text>
<path d="M1006 241h10v38h-10z" stroke="none" fill="#edf6fe" />
</g>
<g stroke="black" stroke-width="3">
<path d="M996 245v10" />
<path d="M991 250h10" />
</g>
<g stroke="black">
<path d="M989 243h14v14h-14z" />
<text x="989" y="250" fill="black" stroke-width="0" font-size="10" text-anchor="end" dy="3.66667">m_axis</text>
</g>
<g stroke="black" stroke-width="2">
<path d="M1016 270h-10" />
<path d="M985 265l8 5l-8 5z" stroke="none" fill="black" />
<text x="984" y="270" fill="black" stroke-width="0" font-size="10" text-anchor="end" dy="3.66667">m_axis_tlast</text>
<path d="M716 221h10v18h-10z" stroke="none" fill="#edf6fe" />
</g>
<g stroke="black" stroke-width="3">
<path d="M735 225v10" />
<path d="M730 230h10" />
</g>
<g stroke="black">
<path d="M728 223h14v14h-14z" />
<text x="743" y="230" fill="black" stroke-width="0" font-size="10" dy="3.66667">s_axis</text>
</g>
<g stroke="black" stroke-width="3">
<path d="M716 250h10" />
<text x="728" y="250" fill="black" stroke-width="0" font-size="10" dy="3.66667">aclk</text>
<circle cx="723" cy="270" r="3" />
<path d="M716 270h4" />
<text x="728" y="270" fill="black" stroke-width="0" font-size="10" dy="3.66667">aresetn</text>
</g>
<g stroke="black" stroke-width="5">
<path d="M716 290h10" />
<text x="728" y="290" fill="black" stroke-width="0" font-size="10" dy="3.66667">packet_size_in[15:0]</text>
</g>
<g stroke="#41619f">
<path d="M733 202h266" />
<path d="M999,202 A6.83537,6.83537 1.61957 0,1 1006,209" />
<path d="M1006 209v102" />
<path d="M1006,311 A6.83537,6.83537 1.61957 0,1 999,318" />
<path d="M999 318h-266" />
<path d="M733,318 A6.83537,6.83537 1.61957 0,1 726,311" />
<path d="M726 311v-102" />
<path d="M726,209 A6.83537,6.83537 1.61957 0,1 733,202" />
<path d="M753 402h226l3 1l2 1l1 2l1 3v82l-1 3l-1 2l-2 1l-3 1h-226l-3 -1l-2 -1l-1 -2l-1 -3v-82l1 -3l1 -2l2 -1z" stroke="none" fill="#edf6fe" />
<text x="866" y="400" fill="black" stroke-width="0" text-anchor="middle" dy="-1.6">axis_broadcaster_0</text>
<text x="866" y="500" fill="#41619f" stroke-width="0" text-anchor="middle" dy="9.6">AXI4-Stream Broadcaster</text>
<path d="M736 421h10v18h-10z" stroke="none" fill="#edf6fe" />
</g>
<g stroke="black" stroke-width="3">
<path d="M755 425v10" />
<path d="M750 430h10" />
</g>
<g stroke="black">
<path d="M748 423h14v14h-14z" />
<text x="763" y="430" fill="black" stroke-width="0" font-size="10" dy="3.66667">S_AXIS</text>
<path d="M986 431h10v18h-10z" stroke="none" fill="#edf6fe" />
</g>
<g stroke="black" stroke-width="3">
<path d="M976 435v10" />
<path d="M971 440h10" />
</g>
<g stroke="black">
<path d="M969 433h14v14h-14z" />
<text x="969" y="440" fill="black" stroke-width="0" font-size="10" text-anchor="end" dy="3.66667">M00_AXIS</text>
<path d="M986 451h10v18h-10z" stroke="none" fill="#edf6fe" />
</g>
<g stroke="black" stroke-width="3">
<path d="M976 455v10" />
<path d="M971 460h10" />
</g>
<g stroke="black">
<path d="M969 453h14v14h-14z" />
<text x="969" y="460" fill="black" stroke-width="0" font-size="10" text-anchor="end" dy="3.66667">M01_AXIS</text>
</g>
<g stroke="black" stroke-width="3">
<path d="M736 450h10" />
<text x="748" y="450" fill="black" stroke-width="0" font-size="10" dy="3.66667">aclk</text>
<circle cx="743" cy="470" r="3" />
<path d="M736 470h4" />
<text x="748" y="470" fill="black" stroke-width="0" font-size="10" dy="3.66667">aresetn</text>
</g>
<g stroke="#41619f">
<path d="M753 402h226" />
<path d="M979,402 A6.83537,6.83537 1.61957 0,1 986,409" />
<path d="M986 409v82" />
<path d="M986,491 A6.83537,6.83537 1.61957 0,1 979,498" />
<path d="M979 498h-226" />
<path d="M753,498 A6.83537,6.83537 1.61957 0,1 746,491" />
<path d="M746 491v-82" />
<path d="M746,409 A6.83537,6.83537 1.61957 0,1 753,402" />
<path d="M1173 392h166l3 1l2 1l1 2l1 3v102l-1 3l-1 2l-2 1l-3 1h-166l-3 -1l-2 -1l-1 -2l-1 -3v-102l1 -3l1 -2l2 -1z" stroke="none" fill="#edf6fe" />
<text x="1256" y="390" fill="black" stroke-width="0" text-anchor="middle" dy="-1.6">axis_channel_demux_0</text>
<text x="1256" y="510" fill="#41619f" stroke-width="0" text-anchor="middle" dy="9.6">axis_channel_demux_v1_0</text>
<path d="M1346 441h10v18h-10z" stroke="none" fill="#edf6fe" />
</g>
<g stroke="black" stroke-width="3">
<path d="M1336 445v10" />
<path d="M1331 450h10" />
</g>
<g stroke="black">
<path d="M1329 443h14v14h-14z" />
<text x="1329" y="450" fill="black" stroke-width="0" font-size="10" text-anchor="end" dy="3.66667">m_axis</text>
<path d="M1156 411h10v18h-10z" stroke="none" fill="#edf6fe" />
</g>
<g stroke="black" stroke-width="3">
<path d="M1175 415v10" />
<path d="M1170 420h10" />
</g>
<g stroke="black">
<path d="M1168 413h14v14h-14z" />
<text x="1183" y="420" fill="black" stroke-width="0" font-size="10" dy="3.66667">s_axis</text>
</g>
<g stroke="black" stroke-width="3">
<path d="M1156 440h10" />
<text x="1168" y="440" fill="black" stroke-width="0" font-size="10" dy="3.66667">aclk</text>
<circle cx="1163" cy="460" r="3" />
<path d="M1156 460h4" />
<text x="1168" y="460" fill="black" stroke-width="0" font-size="10" dy="3.66667">aresetn</text>
<path d="M1156 480h10" />
<text x="1168" y="480" fill="black" stroke-width="0" font-size="10" dy="3.66667">sel_ch</text>
</g>
<g stroke="#41619f">
<path d="M1173 392h166" />
<path d="M1339,392 A6.83537,6.83537 1.61957 0,1 1346,399" />
<path d="M1346 399v102" />
<path d="M1346,501 A6.83537,6.83537 1.61957 0,1 1339,508" />
<path d="M1339 508h-166" />
<path d="M1173,508 A6.83537,6.83537 1.61957 0,1 1166,501" />
<path d="M1166 501v-102" />
<path d="M1166,399 A6.83537,6.83537 1.61957 0,1 1173,392" />
<path d="M1143 582h226l3 1l2 1l1 2l1 3v82l-1 3l-1 2l-2 1l-3 1h-226l-3 -1l-2 -1l-1 -2l-1 -3v-82l1 -3l1 -2l2 -1z" stroke="none" fill="#edf6fe" />
<text x="1256" y="580" fill="black" stroke-width="0" text-anchor="middle" dy="-1.6">axis_subset_converter_0</text>
<text x="1256" y="680" fill="#41619f" stroke-width="0" text-anchor="middle" dy="9.6">AXI4-Stream Subset Converter</text>
<path d="M1126 601h10v18h-10z" stroke="none" fill="#edf6fe" />
</g>
<g stroke="black" stroke-width="3">
<path d="M1145 605v10" />
<path d="M1140 610h10" />
</g>
<g stroke="black">
<path d="M1138 603h14v14h-14z" />
<text x="1153" y="610" fill="black" stroke-width="0" font-size="10" dy="3.66667">S_AXIS</text>
<path d="M1376 621h10v18h-10z" stroke="none" fill="#edf6fe" />
</g>
<g stroke="black" stroke-width="3">
<path d="M1366 625v10" />
<path d="M1361 630h10" />
</g>
<g stroke="black">
<path d="M1359 623h14v14h-14z" />
<text x="1359" y="630" fill="black" stroke-width="0" font-size="10" text-anchor="end" dy="3.66667">M_AXIS</text>
</g>
<g stroke="black" stroke-width="3">
<path d="M1126 630h10" />
<text x="1138" y="630" fill="black" stroke-width="0" font-size="10" dy="3.66667">aclk</text>
<circle cx="1133" cy="650" r="3" />
<path d="M1126 650h4" />
<text x="1138" y="650" fill="black" stroke-width="0" font-size="10" dy="3.66667">aresetn</text>
</g>
<g stroke="#41619f">
<path d="M1143 582h226" />
<path d="M1369,582 A6.83537,6.83537 1.61957 0,1 1376,589" />
<path d="M1376 589v82" />
<path d="M1376,671 A6.83537,6.83537 1.61957 0,1 1369,678" />
<path d="M1369 678h-226" />
<path d="M1143,678 A6.83537,6.83537 1.61957 0,1 1136,671" />
<path d="M1136 671v-82" />
<path d="M1136,589 A6.83537,6.83537 1.61957 0,1 1143,582" />
<path d="M1483 362h346l3 1l2 1l1 2l1 3v182l-1 3l-1 2l-2 1l-3 1h-346l-3 -1l-2 -1l-1 -2l-1 -3v-182l1 -3l1 -2l2 -1z" stroke="none" fill="#edf6fe" />
<text x="1656" y="360" fill="black" stroke-width="0" text-anchor="middle" dy="-1.6">xfft_0</text>
<text x="1656" y="560" fill="#41619f" stroke-width="0" text-anchor="middle" dy="9.6">Fast Fourier Transform</text>
<path d="M1466 411h10v18h-10z" stroke="none" fill="#edf6fe" />
</g>
<g stroke="black" stroke-width="3">
<path d="M1485 415v10" />
<path d="M1480 420h10" />
</g>
<g stroke="black">
<path d="M1478 413h14v14h-14z" />
<text x="1493" y="420" fill="black" stroke-width="0" font-size="10" dy="3.66667">S_AXIS_DATA</text>
<path d="M1836 381h10v18h-10z" stroke="none" fill="#edf6fe" />
</g>
<g stroke="black" stroke-width="3">
<path d="M1826 385v10" />
<path d="M1821 390h10" />
</g>
<g stroke="black">
<path d="M1819 383h14v14h-14z" />
<text x="1819" y="390" fill="black" stroke-width="0" font-size="10" text-anchor="end" dy="3.66667">M_AXIS_STATUS</text>
<path d="M1836 401h10v18h-10z" stroke="none" fill="#edf6fe" />
</g>
<g stroke="black" stroke-width="3">
<path d="M1826 405v10" />
<path d="M1821 410h10" />
</g>
<g stroke="black">
<path d="M1819 403h14v14h-14z" />
<text x="1819" y="410" fill="black" stroke-width="0" font-size="10" text-anchor="end" dy="3.66667">M_AXIS_DATA</text>
<path d="M1466 431h10v58h-10z" stroke="none" fill="#edf6fe" />
</g>
<g stroke="black" stroke-width="3">
<path d="M1485 435v10" />
<path d="M1480 440h10" />
</g>
<g stroke="black">
<path d="M1478 433h14v14h-14z" />
<text x="1493" y="440" fill="black" stroke-width="0" font-size="10" dy="3.66667">S_AXIS_CONFIG</text>
</g>
<g stroke="black" stroke-width="3">
<path d="M1466 460h10" />
<path d="M1489 455l8 5l-8 5z" stroke="none" fill="black" />
<text x="1498" y="460" fill="black" stroke-width="0" font-size="10" dy="3.66667">s_axis_config_tdata[15:0]</text>
</g>
<g stroke="black" stroke-width="2">
<path d="M1466 480h10" />
<path d="M1489 475l8 5l-8 5z" stroke="none" fill="black" />
<text x="1498" y="480" fill="black" stroke-width="0" font-size="10" dy="3.66667">s_axis_config_tvalid</text>
</g>
<g stroke="black" stroke-width="3">
<path d="M1466 500h10" />
<text x="1478" y="500" fill="black" stroke-width="0" font-size="10" dy="3.66667">aclk</text>
<path d="M1846 430h-10" />
<text x="1834" y="430" fill="black" stroke-width="0" font-size="10" text-anchor="end" dy="3.66667">event_frame_started</text>
<path d="M1846 450h-10" />
<text x="1834" y="450" fill="black" stroke-width="0" font-size="10" text-anchor="end" dy="3.66667">event_tlast_unexpected</text>
<path d="M1846 470h-10" />
<text x="1834" y="470" fill="black" stroke-width="0" font-size="10" text-anchor="end" dy="3.66667">event_tlast_missing</text>
<path d="M1846 490h-10" />
<text x="1834" y="490" fill="black" stroke-width="0" font-size="10" text-anchor="end" dy="3.66667">event_status_channel_halt</text>
<path d="M1846 510h-10" />
<text x="1834" y="510" fill="black" stroke-width="0" font-size="10" text-anchor="end" dy="3.66667">event_data_in_channel_halt</text>
<path d="M1846 530h-10" />
<text x="1834" y="530" fill="black" stroke-width="0" font-size="10" text-anchor="end" dy="3.66667">event_data_out_channel_halt</text>
</g>
<g stroke="#41619f">
<path d="M1483 362h346" />
<path d="M1829,362 A6.83537,6.83537 1.61957 0,1 1836,369" />
<path d="M1836 369v182" />
<path d="M1836,551 A6.83537,6.83537 1.61957 0,1 1829,558" />
<path d="M1829 558h-346" />
<path d="M1483,558 A6.83537,6.83537 1.61957 0,1 1476,551" />
<path d="M1476 551v-182" />
<path d="M1476,369 A6.83537,6.83537 1.61957 0,1 1483,362" />
<path d="M1533 612h246l3 1l2 1l1 2l1 3v82l-1 3l-1 2l-2 1l-3 1h-246l-3 -1l-2 -1l-1 -2l-1 -3v-82l1 -3l1 -2l2 -1z" stroke="none" fill="#edf6fe" />
<text x="1656" y="610" fill="black" stroke-width="0" text-anchor="middle" dy="-1.6">cordic_0</text>
<text x="1656" y="710" fill="#41619f" stroke-width="0" text-anchor="middle" dy="9.6">CORDIC</text>
<path d="M1516 631h10v18h-10z" stroke="none" fill="#edf6fe" />
</g>
<g stroke="black" stroke-width="3">
<path d="M1535 635v10" />
<path d="M1530 640h10" />
</g>
<g stroke="black">
<path d="M1528 633h14v14h-14z" />
<text x="1543" y="640" fill="black" stroke-width="0" font-size="10" dy="3.66667">S_AXIS_CARTESIAN</text>
<path d="M1786 651h10v18h-10z" stroke="none" fill="#edf6fe" />
</g>
<g stroke="black" stroke-width="3">
<path d="M1776 655v10" />
<path d="M1771 660h10" />
</g>
<g stroke="black">
<path d="M1769 653h14v14h-14z" />
<text x="1769" y="660" fill="black" stroke-width="0" font-size="10" text-anchor="end" dy="3.66667">M_AXIS_DOUT</text>
</g>
<g stroke="black" stroke-width="3">
<path d="M1516 660h10" />
<text x="1528" y="660" fill="black" stroke-width="0" font-size="10" dy="3.66667">aclk</text>
<circle cx="1523" cy="680" r="3" />
<path d="M1516 680h4" />
<text x="1528" y="680" fill="black" stroke-width="0" font-size="10" dy="3.66667">aresetn</text>
</g>
<g stroke="#41619f">
<path d="M1533 612h246" />
<path d="M1779,612 A6.83537,6.83537 1.61957 0,1 1786,619" />
<path d="M1786 619v82" />
<path d="M1786,701 A6.83537,6.83537 1.61957 0,1 1779,708" />
<path d="M1779 708h-246" />
<path d="M1533,708 A6.83537,6.83537 1.61957 0,1 1526,701" />
<path d="M1526 701v-82" />
<path d="M1526,619 A6.83537,6.83537 1.61957 0,1 1533,612" />
<path d="M1953 162h306l3 1l2 1l1 2l1 3v142l-1 3l-1 2l-2 1l-3 1h-306l-3 -1l-2 -1l-1 -2l-1 -3v-142l1 -3l1 -2l2 -1z" stroke="none" fill="#edf6fe" />
<text x="2106" y="160" fill="black" stroke-width="0" text-anchor="middle" dy="-1.6">axi_dma_0</text>
<text x="2106" y="320" fill="#41619f" stroke-width="0" text-anchor="middle" dy="9.6">AXI Direct Memory Access</text>
<path d="M1936 181h10v18h-10z" stroke="none" fill="#edf6fe" />
</g>
<g stroke="black" stroke-width="3">
<path d="M1955 185v10" />
<path d="M1950 190h10" />
</g>
<g stroke="black">
<path d="M1948 183h14v14h-14z" />
<text x="1963" y="190" fill="black" stroke-width="0" font-size="10" dy="3.66667">S_AXI_LITE</text>
<path d="M2266 211h10v18h-10z" stroke="none" fill="#edf6fe" />
</g>
<g stroke="black" stroke-width="3">
<path d="M2256 215v10" />
<path d="M2251 220h10" />
</g>
<g stroke="black">
<path d="M2249 213h14v14h-14z" />
<text x="2249" y="220" fill="black" stroke-width="0" font-size="10" text-anchor="end" dy="3.66667">M_AXI_S2MM</text>
<path d="M1936 201h10v38h-10z" stroke="none" fill="#edf6fe" />
</g>
<g stroke="black" stroke-width="3">
<path d="M1955 205v10" />
<path d="M1950 210h10" />
</g>
<g stroke="black">
<path d="M1948 203h14v14h-14z" />
<text x="1963" y="210" fill="black" stroke-width="0" font-size="10" dy="3.66667">S_AXIS_S2MM</text>
</g>
<g stroke="black" stroke-width="2">
<path d="M1936 230h10" />
<path d="M1959 225l8 5l-8 5z" stroke="none" fill="black" />
<text x="1968" y="230" fill="black" stroke-width="0" font-size="10" dy="3.66667">s_axis_s2mm_tlast</text>
</g>
<g stroke="black" stroke-width="3">
<path d="M1936 250h10" />
<text x="1948" y="250" fill="black" stroke-width="0" font-size="10" dy="3.66667">s_axi_lite_aclk</text>
<path d="M1936 270h10" />
<text x="1948" y="270" fill="black" stroke-width="0" font-size="10" dy="3.66667">m_axi_s2mm_aclk</text>
<circle cx="1943" cy="290" r="3" />
<path d="M1936 290h4" />
<text x="1948" y="290" fill="black" stroke-width="0" font-size="10" dy="3.66667">axi_resetn</text>
<circle cx="2269" cy="240" r="3" />
<path d="M2276 240h-4" />
<text x="2264" y="240" fill="black" stroke-width="0" font-size="10" text-anchor="end" dy="3.66667">s2mm_prmry_reset_out_n</text>
<path d="M2276 260h-10" />
<text x="2264" y="260" fill="black" stroke-width="0" font-size="10" text-anchor="end" dy="3.66667">s2mm_introut</text>
</g>
<g stroke="#41619f">
<path d="M1953 162h306" />
<path d="M2259,162 A6.83537,6.83537 1.61957 0,1 2266,169" />
<path d="M2266 169v142" />
<path d="M2266,311 A6.83537,6.83537 1.61957 0,1 2259,318" />
<path d="M2259 318h-306" />
<path d="M1953,318 A6.83537,6.83537 1.61957 0,1 1946,311" />
<path d="M1946 311v-142" />
<path d="M1946,169 A6.83537,6.83537 1.61957 0,1 1953,162" />
<path d="M1973 402h266l3 1l2 1l1 2l1 3v122l-1 3l-1 2l-2 1l-3 1h-266l-3 -1l-2 -1l-1 -2l-1 -3v-122l1 -3l1 -2l2 -1z" stroke="none" fill="#edf6fe" />
<text x="2106" y="400" fill="black" stroke-width="0" text-anchor="middle" dy="-1.6">axi_dma_1</text>
<text x="2106" y="540" fill="#41619f" stroke-width="0" text-anchor="middle" dy="9.6">AXI Direct Memory Access</text>
<path d="M1956 421h10v18h-10z" stroke="none" fill="#edf6fe" />
</g>
<g stroke="black" stroke-width="3">
<path d="M1975 425v10" />
<path d="M1970 430h10" />
</g>
<g stroke="black">
<path d="M1968 423h14v14h-14z" />
<text x="1983" y="430" fill="black" stroke-width="0" font-size="10" dy="3.66667">S_AXI_LITE</text>
<path d="M2246 441h10v18h-10z" stroke="none" fill="#edf6fe" />
</g>
<g stroke="black" stroke-width="3">
<path d="M2236 445v10" />
<path d="M2231 450h10" />
</g>
<g stroke="black">
<path d="M2229 443h14v14h-14z" />
<text x="2229" y="450" fill="black" stroke-width="0" font-size="10" text-anchor="end" dy="3.66667">M_AXI_S2MM</text>
<path d="M1956 441h10v18h-10z" stroke="none" fill="#edf6fe" />
</g>
<g stroke="black" stroke-width="3">
<path d="M1975 445v10" />
<path d="M1970 450h10" />
</g>
<g stroke="black">
<path d="M1968 443h14v14h-14z" />
<text x="1983" y="450" fill="black" stroke-width="0" font-size="10" dy="3.66667">S_AXIS_S2MM</text>
</g>
<g stroke="black" stroke-width="3">
<path d="M1956 470h10" />
<text x="1968" y="470" fill="black" stroke-width="0" font-size="10" dy="3.66667">s_axi_lite_aclk</text>
<path d="M1956 490h10" />
<text x="1968" y="490" fill="black" stroke-width="0" font-size="10" dy="3.66667">m_axi_s2mm_aclk</text>
<circle cx="1963" cy="510" r="3" />
<path d="M1956 510h4" />
<text x="1968" y="510" fill="black" stroke-width="0" font-size="10" dy="3.66667">axi_resetn</text>
<circle cx="2249" cy="470" r="3" />
<path d="M2256 470h-4" />
<text x="2244" y="470" fill="black" stroke-width="0" font-size="10" text-anchor="end" dy="3.66667">s2mm_prmry_reset_out_n</text>
<path d="M2256 490h-10" />
<text x="2244" y="490" fill="black" stroke-width="0" font-size="10" text-anchor="end" dy="3.66667">s2mm_introut</text>
</g>
<g stroke="#41619f">
<path d="M1973 402h266" />
<path d="M2239,402 A6.83537,6.83537 1.61957 0,1 2246,409" />
<path d="M2246 409v122" />
<path d="M2246,531 A6.83537,6.83537 1.61957 0,1 2239,538" />
<path d="M2239 538h-266" />
<path d="M1973,538 A6.83537,6.83537 1.61957 0,1 1966,531" />
<path d="M1966 531v-122" />
<path d="M1966,409 A6.83537,6.83537 1.61957 0,1 1973,402" />
<path d="M1993 582h226l3 1l2 1l1 2l1 3v82l-1 3l-1 2l-2 1l-3 1h-226l-3 -1l-2 -1l-1 -2l-1 -3v-82l1 -3l1 -2l2 -1z" stroke="none" fill="#edf6fe" />
<text x="2106" y="580" fill="black" stroke-width="0" text-anchor="middle" dy="-1.6">axis_subset_converter_1</text>
<text x="2106" y="680" fill="#41619f" stroke-width="0" text-anchor="middle" dy="9.6">AXI4-Stream Subset Converter</text>
<path d="M1976 601h10v18h-10z" stroke="none" fill="#edf6fe" />
</g>
<g stroke="black" stroke-width="3">
<path d="M1995 605v10" />
<path d="M1990 610h10" />
</g>
<g stroke="black">
<path d="M1988 603h14v14h-14z" />
<text x="2003" y="610" fill="black" stroke-width="0" font-size="10" dy="3.66667">S_AXIS</text>
<path d="M2226 621h10v18h-10z" stroke="none" fill="#edf6fe" />
</g>
<g stroke="black" stroke-width="3">
<path d="M2216 625v10" />
<path d="M2211 630h10" />
</g>
<g stroke="black">
<path d="M2209 623h14v14h-14z" />
<text x="2209" y="630" fill="black" stroke-width="0" font-size="10" text-anchor="end" dy="3.66667">M_AXIS</text>
</g>
<g stroke="black" stroke-width="3">
<path d="M1976 630h10" />
<text x="1988" y="630" fill="black" stroke-width="0" font-size="10" dy="3.66667">aclk</text>
<circle cx="1983" cy="650" r="3" />
<path d="M1976 650h4" />
<text x="1988" y="650" fill="black" stroke-width="0" font-size="10" dy="3.66667">aresetn</text>
</g>
<g stroke="#41619f">
<path d="M1993 582h226" />
<path d="M2219,582 A6.83537,6.83537 1.61957 0,1 2226,589" />
<path d="M2226 589v82" />
<path d="M2226,671 A6.83537,6.83537 1.61957 0,1 2219,678" />
<path d="M2219 678h-226" />
<path d="M1993,678 A6.83537,6.83537 1.61957 0,1 1986,671" />
<path d="M1986 671v-82" />
<path d="M1986,589 A6.83537,6.83537 1.61957 0,1 1993,582" />
<path d="M2403 132h206l3 1l2 1l1 2l1 3v122l-1 3l-1 2l-2 1l-3 1h-206l-3 -1l-2 -1l-1 -2l-1 -3v-122l1 -3l1 -2l2 -1z" stroke="none" fill="#edf6fe" />
<text x="2506" y="130" fill="black" stroke-width="0" text-anchor="middle" dy="-1.6">axi_smc_0</text>
<text x="2506" y="270" fill="#41619f" stroke-width="0" text-anchor="middle" dy="9.6">AXI SmartConnect</text>
<path d="M2386 171h10v18h-10z" stroke="none" fill="#edf6fe" />
</g>
<g stroke="black" stroke-width="3">
<path d="M2405 175v10" />
<path d="M2400 180h10" />
</g>
<g stroke="black">
<path d="M2398 173h14v14h-14z" />
<text x="2413" y="180" fill="black" stroke-width="0" font-size="10" dy="3.66667">S00_AXI</text>
<path d="M2616 151h10v18h-10z" stroke="none" fill="#edf6fe" />
</g>
<g stroke="black" stroke-width="3">
<path d="M2606 155v10" />
<path d="M2601 160h10" />
</g>
<g stroke="black">
<path d="M2599 153h14v14h-14z" />
<text x="2599" y="160" fill="black" stroke-width="0" font-size="10" text-anchor="end" dy="3.66667">M00_AXI</text>
<path d="M2616 171h10v18h-10z" stroke="none" fill="#edf6fe" />
</g>
<g stroke="black" stroke-width="3">
<path d="M2606 175v10" />
<path d="M2601 180h10" />
</g>
<g stroke="black">
<path d="M2599 173h14v14h-14z" />
<text x="2599" y="180" fill="black" stroke-width="0" font-size="10" text-anchor="end" dy="3.66667">M01_AXI</text>
<path d="M2616 191h10v18h-10z" stroke="none" fill="#edf6fe" />
</g>
<g stroke="black" stroke-width="3">
<path d="M2606 195v10" />
<path d="M2601 200h10" />
</g>
<g stroke="black">
<path d="M2599 193h14v14h-14z" />
<text x="2599" y="200" fill="black" stroke-width="0" font-size="10" text-anchor="end" dy="3.66667">M02_AXI</text>
<path d="M2616 211h10v18h-10z" stroke="none" fill="#edf6fe" />
</g>
<g stroke="black" stroke-width="3">
<path d="M2606 215v10" />
<path d="M2601 220h10" />
</g>
<g stroke="black">
<path d="M2599 213h14v14h-14z" />
<text x="2599" y="220" fill="black" stroke-width="0" font-size="10" text-anchor="end" dy="3.66667">M03_AXI</text>
<path d="M2616 231h10v18h-10z" stroke="none" fill="#edf6fe" />
</g>
<g stroke="black" stroke-width="3">
<path d="M2606 235v10" />
<path d="M2601 240h10" />
</g>
<g stroke="black">
<path d="M2599 233h14v14h-14z" />
<text x="2599" y="240" fill="black" stroke-width="0" font-size="10" text-anchor="end" dy="3.66667">M04_AXI</text>
</g>
<g stroke="black" stroke-width="3">
<path d="M2386 200h10" />
<text x="2398" y="200" fill="black" stroke-width="0" font-size="10" dy="3.66667">aclk</text>
<circle cx="2393" cy="220" r="3" />
<path d="M2386 220h4" />
<text x="2398" y="220" fill="black" stroke-width="0" font-size="10" dy="3.66667">aresetn</text>
</g>
<g stroke="#41619f">
<path d="M2403 132h206" />
<path d="M2609,132 A6.83537,6.83537 1.61957 0,1 2616,139" />
<path d="M2616 139v122" />
<path d="M2616,261 A6.83537,6.83537 1.61957 0,1 2609,268" />
<path d="M2609 268h-206" />
<path d="M2403,268 A6.83537,6.83537 1.61957 0,1 2396,261" />
<path d="M2396 261v-122" />
<path d="M2396,139 A6.83537,6.83537 1.61957 0,1 2403,132" />
<path d="M2403 312h206l3 1l2 1l1 2l1 3v102l-1 3l-1 2l-2 1l-3 1h-206l-3 -1l-2 -1l-1 -2l-1 -3v-102l1 -3l1 -2l2 -1z" stroke="none" fill="#edf6fe" />
<text x="2506" y="310" fill="black" stroke-width="0" text-anchor="middle" dy="-1.6">axi_smc_1</text>
<text x="2506" y="430" fill="#41619f" stroke-width="0" text-anchor="middle" dy="9.6">AXI SmartConnect</text>
<path d="M2386 331h10v18h-10z" stroke="none" fill="#edf6fe" />
</g>
<g stroke="black" stroke-width="3">
<path d="M2405 335v10" />
<path d="M2400 340h10" />
</g>
<g stroke="black">
<path d="M2398 333h14v14h-14z" />
<text x="2413" y="340" fill="black" stroke-width="0" font-size="10" dy="3.66667">S00_AXI</text>
<path d="M2386 351h10v18h-10z" stroke="none" fill="#edf6fe" />
</g>
<g stroke="black" stroke-width="3">
<path d="M2405 355v10" />
<path d="M2400 360h10" />
</g>
<g stroke="black">
<path d="M2398 353h14v14h-14z" />
<text x="2413" y="360" fill="black" stroke-width="0" font-size="10" dy="3.66667">S01_AXI</text>
<path d="M2616 361h10v18h-10z" stroke="none" fill="#edf6fe" />
</g>
<g stroke="black" stroke-width="3">
<path d="M2606 365v10" />
<path d="M2601 370h10" />
</g>
<g stroke="black">
<path d="M2599 363h14v14h-14z" />
<text x="2599" y="370" fill="black" stroke-width="0" font-size="10" text-anchor="end" dy="3.66667">M00_AXI</text>
</g>
<g stroke="black" stroke-width="3">
<path d="M2386 380h10" />
<text x="2398" y="380" fill="black" stroke-width="0" font-size="10" dy="3.66667">aclk</text>
<circle cx="2393" cy="400" r="3" />
<path d="M2386 400h4" />
<text x="2398" y="400" fill="black" stroke-width="0" font-size="10" dy="3.66667">aresetn</text>
</g>
<g stroke="#41619f">
<path d="M2403 312h206" />
<path d="M2609,312 A6.83537,6.83537 1.61957 0,1 2616,319" />
<path d="M2616 319v102" />
<path d="M2616,421 A6.83537,6.83537 1.61957 0,1 2609,428" />
<path d="M2609 428h-206" />
<path d="M2403,428 A6.83537,6.83537 1.61957 0,1 2396,421" />
<path d="M2396 421v-102" />
<path d="M2396,319 A6.83537,6.83537 1.61957 0,1 2403,312" />
<path d="M2363 482h286l3 1l2 1l1 2l1 3v122l-1 3l-1 2l-2 1l-3 1h-286l-3 -1l-2 -1l-1 -2l-1 -3v-122l1 -3l1 -2l2 -1z" stroke="none" fill="#edf6fe" />
<text x="2506" y="480" fill="black" stroke-width="0" text-anchor="middle" dy="-1.6">rst_ps7_0_100M</text>
<text x="2506" y="620" fill="#41619f" stroke-width="0" text-anchor="middle" dy="9.6">Processor System Reset</text>
</g>
<g stroke="black" stroke-width="3">
<path d="M2346 510h10" />
<text x="2358" y="510" fill="black" stroke-width="0" font-size="10" dy="3.66667">slowest_sync_clk</text>
<circle cx="2353" cy="530" r="3" />
<path d="M2346 530h4" />
<text x="2358" y="530" fill="black" stroke-width="0" font-size="10" dy="3.66667">ext_reset_in</text>
<circle cx="2353" cy="550" r="3" />
<path d="M2346 550h4" />
<text x="2358" y="550" fill="black" stroke-width="0" font-size="10" dy="3.66667">aux_reset_in</text>
<path d="M2346 570h10" />
<text x="2358" y="570" fill="black" stroke-width="0" font-size="10" dy="3.66667">mb_debug_sys_rst</text>
<path d="M2346 590h10" />
<text x="2358" y="590" fill="black" stroke-width="0" font-size="10" dy="3.66667">dcm_locked</text>
<path d="M2666 510h-10" />
<text x="2654" y="510" fill="black" stroke-width="0" font-size="10" text-anchor="end" dy="3.66667">mb_reset</text>
</g>
<g stroke="black" stroke-width="5">
<path d="M2666 530h-10" />
<text x="2654" y="530" fill="black" stroke-width="0" font-size="10" text-anchor="end" dy="3.66667">bus_struct_reset[0:0]</text>
<path d="M2666 550h-10" />
<text x="2654" y="550" fill="black" stroke-width="0" font-size="10" text-anchor="end" dy="3.66667">peripheral_reset[0:0]</text>
<circle cx="2659" cy="570" r="3" />
<path d="M2666 570h-4" />
<text x="2654" y="570" fill="black" stroke-width="0" font-size="10" text-anchor="end" dy="3.66667">interconnect_aresetn[0:0]</text>
<circle cx="2659" cy="590" r="3" />
<path d="M2666 590h-4" />
<text x="2654" y="590" fill="black" stroke-width="0" font-size="10" text-anchor="end" dy="3.66667">peripheral_aresetn[0:0]</text>
</g>
<g stroke="#41619f">
<path d="M2363 482h286" />
<path d="M2649,482 A6.83537,6.83537 1.61957 0,1 2656,489" />
<path d="M2656 489v122" />
<path d="M2656,611 A6.83537,6.83537 1.61957 0,1 2649,618" />
<path d="M2649 618h-286" />
<path d="M2363,618 A6.83537,6.83537 1.61957 0,1 2356,611" />
<path d="M2356 611v-122" />
<path d="M2356,489 A6.83537,6.83537 1.61957 0,1 2363,482" />
<path d="M2863 172h186l3 1l2 1l1 2l1 3v142l-1 3l-1 2l-2 1l-3 1h-186l-3 -1l-2 -1l-1 -2l-1 -3v-142l1 -3l1 -2l2 -1z" stroke="none" fill="#edf6fe" />
<text x="2956" y="170" fill="black" stroke-width="0" text-anchor="middle" dy="-1.6">axi_timer_0</text>
<text x="2956" y="330" fill="#41619f" stroke-width="0" text-anchor="middle" dy="9.6">AXI Timer</text>
<path d="M2846 191h10v18h-10z" stroke="none" fill="#edf6fe" />
</g>
<g stroke="black" stroke-width="3">
<path d="M2865 195v10" />
<path d="M2860 200h10" />
</g>
<g stroke="black">
<path d="M2858 193h14v14h-14z" />
<text x="2873" y="200" fill="black" stroke-width="0" font-size="10" dy="3.66667">S_AXI</text>
</g>
<g stroke="black" stroke-width="3">
<path d="M2846 220h10" />
<text x="2858" y="220" fill="black" stroke-width="0" font-size="10" dy="3.66667">capturetrig0</text>
<path d="M2846 240h10" />
<text x="2858" y="240" fill="black" stroke-width="0" font-size="10" dy="3.66667">capturetrig1</text>
<path d="M3066 220h-10" />
<text x="3054" y="220" fill="black" stroke-width="0" font-size="10" text-anchor="end" dy="3.66667">generateout0</text>
<path d="M3066 240h-10" />
<text x="3054" y="240" fill="black" stroke-width="0" font-size="10" text-anchor="end" dy="3.66667">generateout1</text>
<path d="M3066 260h-10" />
<text x="3054" y="260" fill="black" stroke-width="0" font-size="10" text-anchor="end" dy="3.66667">pwm0</text>
<path d="M3066 280h-10" />
<text x="3054" y="280" fill="black" stroke-width="0" font-size="10" text-anchor="end" dy="3.66667">interrupt</text>
<path d="M2846 260h10" />
<text x="2858" y="260" fill="black" stroke-width="0" font-size="10" dy="3.66667">freeze</text>
<path d="M2846 280h10" />
<text x="2858" y="280" fill="black" stroke-width="0" font-size="10" dy="3.66667">s_axi_aclk</text>
<circle cx="2853" cy="300" r="3" />
<path d="M2846 300h4" />
<text x="2858" y="300" fill="black" stroke-width="0" font-size="10" dy="3.66667">s_axi_aresetn</text>
</g>
<g stroke="#41619f">
<path d="M2863 172h186" />
<path d="M3049,172 A6.83537,6.83537 1.61957 0,1 3056,179" />
<path d="M3056 179v142" />
<path d="M3056,321 A6.83537,6.83537 1.61957 0,1 3049,328" />
<path d="M3049 328h-186" />
<path d="M2863,328 A6.83537,6.83537 1.61957 0,1 2856,321" />
<path d="M2856 321v-142" />
<path d="M2856,179 A6.83537,6.83537 1.61957 0,1 2863,172" />
<path d="M2783 372h346l3 1l2 1l1 2l1 3v142l-1 3l-1 2l-2 1l-3 1h-346l-3 -1l-2 -1l-1 -2l-1 -3v-142l1 -3l1 -2l2 -1z" stroke="none" fill="#edf6fe" />
<text x="2956" y="370" fill="black" stroke-width="0" text-anchor="middle" dy="-1.6">processing_system7_0</text>
<text x="2956" y="530" fill="#41619f" stroke-width="0" text-anchor="middle" dy="9.6">ZYNQ7 Processing System</text>
<path d="M3136 391h10v18h-10z" stroke="none" fill="#edf6fe" />
</g>
<g stroke="black" stroke-width="3">
<path d="M3126 395v10" />
<path d="M3121 400h10" />
</g>
<g stroke="black">
<path d="M3119 393h14v14h-14z" />
<text x="3119" y="400" fill="black" stroke-width="0" font-size="10" text-anchor="end" dy="3.66667">DDR</text>
<path d="M3136 411h10v18h-10z" stroke="none" fill="#edf6fe" />
</g>
<g stroke="black" stroke-width="3">
<path d="M3126 415v10" />
<path d="M3121 420h10" />
</g>
<g stroke="black">
<path d="M3119 413h14v14h-14z" />
<text x="3119" y="420" fill="black" stroke-width="0" font-size="10" text-anchor="end" dy="3.66667">FIXED_IO</text>
<path d="M3136 431h10v18h-10z" stroke="none" fill="#edf6fe" />
</g>
<g stroke="black" stroke-width="3">
<path d="M3126 435v10" />
<path d="M3121 440h10" />
</g>
<g stroke="black">
<path d="M3119 433h14v14h-14z" />
<text x="3119" y="440" fill="black" stroke-width="0" font-size="10" text-anchor="end" dy="3.66667">USBIND_0</text>
<path d="M2766 411h10v18h-10z" stroke="none" fill="#edf6fe" />
</g>
<g stroke="black" stroke-width="3">
<path d="M2785 415v10" />
<path d="M2780 420h10" />
</g>
<g stroke="black">
<path d="M2778 413h14v14h-14z" />
<text x="2793" y="420" fill="black" stroke-width="0" font-size="10" dy="3.66667">S_AXI_HP0_FIFO_CTRL</text>
<path d="M3136 451h10v18h-10z" stroke="none" fill="#edf6fe" />
</g>
<g stroke="black" stroke-width="3">
<path d="M3126 455v10" />
<path d="M3121 460h10" />
</g>
<g stroke="black">
<path d="M3119 453h14v14h-14z" />
<text x="3119" y="460" fill="black" stroke-width="0" font-size="10" text-anchor="end" dy="3.66667">M_AXI_GP0</text>
<path d="M2766 431h10v18h-10z" stroke="none" fill="#edf6fe" />
</g>
<g stroke="black" stroke-width="3">
<path d="M2785 435v10" />
<path d="M2780 440h10" />
</g>
<g stroke="black">
<path d="M2778 433h14v14h-14z" />
<text x="2793" y="440" fill="black" stroke-width="0" font-size="10" dy="3.66667">S_AXI_HP0</text>
</g>
<g stroke="black" stroke-width="3">
<path d="M2766 460h10" />
<text x="2778" y="460" fill="black" stroke-width="0" font-size="10" dy="3.66667">M_AXI_GP0_ACLK</text>
<path d="M2766 480h10" />
<text x="2778" y="480" fill="black" stroke-width="0" font-size="10" dy="3.66667">S_AXI_HP0_ACLK</text>
<path d="M3146 480h-10" />
<text x="3134" y="480" fill="black" stroke-width="0" font-size="10" text-anchor="end" dy="3.66667">FCLK_CLK0</text>
<circle cx="3139" cy="500" r="3" />
<path d="M3146 500h-4" />
<text x="3134" y="500" fill="black" stroke-width="0" font-size="10" text-anchor="end" dy="3.66667">FCLK_RESET0_N</text>
</g>
<g stroke="#41619f">
<path d="M2783 372h346" />
<path d="M3129,372 A6.83537,6.83537 1.61957 0,1 3136,379" />
<path d="M3136 379v142" />
<path d="M3136,521 A6.83537,6.83537 1.61957 0,1 3129,528" />
<path d="M3129 528h-346" />
<path d="M2783,528 A6.83537,6.83537 1.61957 0,1 2776,521" />
<path d="M2776 521v-142" />
<path d="M2776,379 A6.83537,6.83537 1.61957 0,1 2783,372" />
<path d="M3206 390v-7h14l7 7l-7 7h-14z" stroke="none" fill="#ddd4d0" />
</g>
<g stroke="#2a5e6f" stroke-width="3">
<path d="M3206 390v-7h14l7 7l-7 7h-14z" />
<text x="3231" y="390" fill="black" stroke-width="0" dy="4.4">DDR</text>
<path d="M3206 430v-7h14l7 7l-7 7h-14z" stroke="none" fill="#ddd4d0" />
<path d="M3206 430v-7h14l7 7l-7 7h-14z" />
<text x="3231" y="430" fill="black" stroke-width="0" dy="4.4">FIXED_IO</text>
</g>
<g stroke="#41619f" stroke-width="4">
<path d="M106 170h180" />
<path d="M106 200h20v-10h160" />
<path d="M106 140h20v10h160" />
<path d="M2276 220h20v120h90" />
<path d="M2256 450h70v-90h60" />
<path d="M286 130h-130v-110h2560v140h-90" />
<path d="M1936 190h-20v-120h770v110h-60" />
<path d="M2626 200h220" />
<path d="M226 380h-50v-340h2520v180h-70" />
<path d="M1956 430h-50v-380h800v190h-80" />
<path d="M996 440h60v-230h880" />
<path d="M996 460h70v-40h90" />
<path d="M1126 610h-20v-70h300v-90h-50" />
<path d="M526 610h130v-380h60" />
<path d="M1386 630h30v-210h50" />
<path d="M1956 450h-40v260h380v-80h-60" />
</g>
<g stroke-width="3">
<path d="M286 630h-80v80h400v-280h-20" />
</g>
<g>
<path d="M586 470h40v60h460v-50h70" />
</g>
<g stroke="#41619f" stroke-width="4">
<path d="M286 570h-80v-500h420v280h-40" />
</g>
<g stroke-width="3">
<path d="M586 390h60v-40h790v110h30" />
</g>
<g>
<path d="M586 410h100v-50h740v120h40" />
</g>
<g stroke-width="3">
<path d="M586 450h80v-160h50" />
</g>
<g stroke="#41619f" stroke-width="4">
<path d="M1796 660h90v-50h90" />
<path d="M3146 400h40v-10h20" />
</g>
<g>
<path d="M286 590h-120v-560h510v510h400" />
<path d="M1076 630h50" />
<path d="M1074 538h5v5h-5z" stroke="none" fill="#102235" />
<path d="M1074 628h5v5h-5z" stroke="none" fill="#102235" />
<path d="M1466 500h-30v240h440v-490h60" />
<path d="M1876 630h100" />
<path d="M1876 490h80" />
<path d="M1876 470h80" />
<path d="M1876 360h440" />
<path d="M2316 200h70" />
<path d="M2314 378h5v5h-5z" stroke="none" fill="#102235" />
<path d="M2314 358h5v5h-5z" stroke="none" fill="#102235" />
<path d="M2314 198h5v5h-5z" stroke="none" fill="#102235" />
<path d="M166 400h60" />
<path d="M166 230h120" />
<path d="M166 210h120" />
<path d="M164 398h5v5h-5z" stroke="none" fill="#102235" />
<path d="M164 228h5v5h-5z" stroke="none" fill="#102235" />
<path d="M164 208h5v5h-5z" stroke="none" fill="#102235" />
<path d="M676 250h40" />
<path d="M676 450h60" />
<path d="M674 248h5v5h-5z" stroke="none" fill="#102235" />
<path d="M674 448h5v5h-5z" stroke="none" fill="#102235" />
<path d="M1156 440h-80v270h360" />
<path d="M1434 658h5v5h-5z" stroke="none" fill="#102235" />
<path d="M1434 708h5v5h-5z" stroke="none" fill="#102235" />
<path d="M1436 660h80" />
<path d="M1876 270h60" />
<path d="M1874 628h5v5h-5z" stroke="none" fill="#102235" />
<path d="M1874 488h5v5h-5z" stroke="none" fill="#102235" />
<path d="M1874 468h5v5h-5z" stroke="none" fill="#102235" />
<path d="M1874 358h5v5h-5z" stroke="none" fill="#102235" />
<path d="M1874 268h5v5h-5z" stroke="none" fill="#102235" />
<path d="M2346 510h-30v-410h410v460h450v-80h-30" />
<path d="M2316 380h70" />
<path d="M2726 280h120" />
<path d="M2726 460h40" />
<path d="M2726 480h40" />
<path d="M2724 278h5v5h-5z" stroke="none" fill="#102235" />
<path d="M2724 458h5v5h-5z" stroke="none" fill="#102235" />
<path d="M2724 478h5v5h-5z" stroke="none" fill="#102235" />
<path d="M2346 530h-20v120h840v-150h-20" />
</g>
<g stroke="#41619f" stroke-width="4">
<path d="M3146 420h40v10h20" />
<path d="M2386 180h-60v-90h850v370h-30" />
</g>
<g stroke-width="3">
<path d="M286 610h-100v-560h450v500h460" />
<path d="M1096 550h310v200h490v-460h40" />
<path d="M1896 650h80" />
<path d="M1896 510h60" />
<path d="M1896 350h410" />
<path d="M2306 220h80" />
<path d="M2303 347h7v7h-7z" stroke="none" fill="#102235" />
<path d="M2303 217h7v7h-7z" stroke="none" fill="#102235" />
<path d="M186 420h40" />
<path d="M186 250h100" />
<path d="M183 417h7v7h-7z" stroke="none" fill="#102235" />
<path d="M183 247h7v7h-7z" stroke="none" fill="#102235" />
<path d="M636 270h80" />
<path d="M636 470h100" />
<path d="M633 267h7v7h-7z" stroke="none" fill="#102235" />
<path d="M633 467h7v7h-7z" stroke="none" fill="#102235" />
<path d="M1156 460h-60v190h30" />
<path d="M1093 547h7v7h-7z" stroke="none" fill="#102235" />
<path d="M1406 680h110" />
<path d="M1403 677h7v7h-7z" stroke="none" fill="#102235" />
<path d="M1893 647h7v7h-7z" stroke="none" fill="#102235" />
<path d="M1893 507h7v7h-7z" stroke="none" fill="#102235" />
<path d="M1893 347h7v7h-7z" stroke="none" fill="#102235" />
<path d="M2386 400h-80v-340h430v530h-70" />
<path d="M2736 300h110" />
<path d="M2733 297h7v7h-7z" stroke="none" fill="#102235" />
</g>
<g stroke="#41619f" stroke-width="4">
<path d="M2626 370h90v70h50" />
<path d="M736 430h-40v-260h340v80h-20" />
</g>
<g>
<path d="M226 460h-80v-450h900v260h-30" />
<path d="M1046 80h820v150h70" />
<path d="M1866 80h880v140h100" />
<path d="M1044 78h5v5h-5z" stroke="none" fill="#102235" />
<path d="M1864 78h5v5h-5z" stroke="none" fill="#102235" />
</g>
<g stroke="#41619f" stroke-width="4">
<path d="M226 360h-30v-300h410v70h-80" />
</g>
<g stroke-width="3">
<path d="M226 440h-30v280h420v-550h-90" />
<path d="M196 650h90" />
<path d="M193 647h7v7h-7z" stroke="none" fill="#102235" />
</g>
<g stroke="#41619f" stroke-width="4">
<path d="M1516 640h-70v-310h420v80h-20" />
</g>
</g>
</svg>
