<?xml version="1.0" encoding="UTF-8" standalone="no"?>
<svg viewBox="0 0 3087 748"
     preserveAspectRatio="xMidYMid meet"
     version="1.1"
     baseProfile="full"
     xmlns="http://www.w3.org/2000/svg"
     xmlns:xlink="http://www.w3.org/1999/xlink"
     xmlns:ev="http://www.w3.org/2001/xml-events"
     xml:space="preserve">
<title>xadc_imp</title>
<desc>Nlview schematic (SVG)</desc>
<clipPath id="clippingbbox">
<rect x="0" y="0" width="3087" height="748" />
</clipPath>
<g stroke="#102235"
   stroke-width="1"
   stroke-linecap="butt"
   stroke-linejoin="miter"
   stroke-miterlimit="4"
   stroke-dasharray="none"
   stroke-dashoffset="0"
   fill="none"
   font-family="Helvetica"
   font-style="normal"
   font-size="12"
   writing-mode="lr-tb"
   cursor="crosshair"
   clip-path="url(#clippingbbox)">
<path d="M0 0h3086v749h-3086z" stroke="none" fill="white" />
<path d="M106 130l-7 7h-14v-14h14z" stroke="none" fill="#ddd4d0" />
<g stroke="#2a5e6f" stroke-width="3">
<path d="M106 130l-7 7h-14v-14h14z" />
<text x="81" y="130" fill="black" stroke-width="0" text-anchor="end" dy="4.4">Vp_Vn_0</text>
<path d="M106 160l-7 7h-14v-14h14z" stroke="none" fill="#ddd4d0" />
<path d="M106 160l-7 7h-14v-14h14z" />
<text x="81" y="160" fill="black" stroke-width="0" text-anchor="end" dy="4.4">Vaux1_0</text>
<path d="M106 190l-7 7h-14v-14h14z" stroke="none" fill="#ddd4d0" />
<path d="M106 190l-7 7h-14v-14h14z" />
<text x="81" y="190" fill="black" stroke-width="0" text-anchor="end" dy="4.4">Vaux9_0</text>
<path d="M233 72h206l3 1l2 1l1 2l1 3v162l-1 3l-1 2l-2 1l-3 1h-206l-3 -1l-2 -1l-1 -2l-1 -3v-162l1 -3l1 -2l2 -1z" stroke="none" fill="#edf6fe" />
<text x="336" y="70" fill="black" stroke-width="0" text-anchor="middle" dy="-1.6">xadc_wiz_0</text>
<text x="336" y="250" fill="#41619f" stroke-width="0" text-anchor="middle" dy="9.6">XADC Wizard</text>
<path d="M446 91h10v18h-10z" stroke="none" fill="#edf6fe" />
</g>
<g stroke="black" stroke-width="3">
<path d="M436 95v10" />
<path d="M431 100h10" />
</g>
<g stroke="black">
<path d="M429 93h14v14h-14z" />
<text x="429" y="100" fill="black" stroke-width="0" font-size="10" text-anchor="end" dy="3.66667">M_AXIS</text>
<path d="M216 91h10v18h-10z" stroke="none" fill="#edf6fe" />
</g>
<g stroke="black" stroke-width="3">
<path d="M235 95v10" />
<path d="M230 100h10" />
</g>
<g stroke="black">
<path d="M228 93h14v14h-14z" />
<text x="243" y="100" fill="black" stroke-width="0" font-size="10" dy="3.66667">s_axi_lite</text>
<path d="M216 111h10v18h-10z" stroke="none" fill="#edf6fe" />
</g>
<g stroke="black" stroke-width="3">
<path d="M235 115v10" />
<path d="M230 120h10" />
</g>
<g stroke="black">
<path d="M228 113h14v14h-14z" />
<text x="243" y="120" fill="black" stroke-width="0" font-size="10" dy="3.66667">Vp_Vn</text>
<path d="M216 131h10v18h-10z" stroke="none" fill="#edf6fe" />
</g>
<g stroke="black" stroke-width="3">
<path d="M235 135v10" />
<path d="M230 140h10" />
</g>
<g stroke="black">
<path d="M228 133h14v14h-14z" />
<text x="243" y="140" fill="black" stroke-width="0" font-size="10" dy="3.66667">Vaux1</text>
<path d="M216 151h10v18h-10z" stroke="none" fill="#edf6fe" />
</g>
<g stroke="black" stroke-width="3">
<path d="M235 155v10" />
<path d="M230 160h10" />
</g>
<g stroke="black">
<path d="M228 153h14v14h-14z" />
<text x="243" y="160" fill="black" stroke-width="0" font-size="10" dy="3.66667">Vaux9</text>
</g>
<g stroke="black" stroke-width="3">
<path d="M216 180h10" />
<text x="228" y="180" fill="black" stroke-width="0" font-size="10" dy="3.66667">s_axis_aclk</text>
<path d="M216 200h10" />
<text x="228" y="200" fill="black" stroke-width="0" font-size="10" dy="3.66667">s_axi_aclk</text>
<circle cx="223" cy="220" r="3" />
<path d="M216 220h4" />
<text x="228" y="220" fill="black" stroke-width="0" font-size="10" dy="3.66667">s_axi_aresetn</text>
<path d="M456 120h-10" />
<text x="444" y="120" fill="black" stroke-width="0" font-size="10" text-anchor="end" dy="3.66667">ip2intc_irpt</text>
</g>
<g stroke="black" stroke-width="5">
<path d="M456 140h-10" />
<text x="444" y="140" fill="black" stroke-width="0" font-size="10" text-anchor="end" dy="3.66667">channel_out[4:0]</text>
</g>
<g stroke="black" stroke-width="3">
<path d="M456 160h-10" />
<text x="444" y="160" fill="black" stroke-width="0" font-size="10" text-anchor="end" dy="3.66667">eoc_out</text>
<path d="M456 180h-10" />
<text x="444" y="180" fill="black" stroke-width="0" font-size="10" text-anchor="end" dy="3.66667">alarm_out</text>
<path d="M456 200h-10" />
<text x="444" y="200" fill="black" stroke-width="0" font-size="10" text-anchor="end" dy="3.66667">eos_out</text>
<path d="M456 220h-10" />
<text x="444" y="220" fill="black" stroke-width="0" font-size="10" text-anchor="end" dy="3.66667">busy_out</text>
</g>
<g stroke="#41619f">
<path d="M233 72h206" />
<path d="M439,72 A6.83537,6.83537 1.61957 0,1 446,79" />
<path d="M446 79v162" />
<path d="M446,241 A6.83537,6.83537 1.61957 0,1 439,248" />
<path d="M439 248h-206" />
<path d="M233,248 A6.83537,6.83537 1.61957 0,1 226,241" />
<path d="M226 241v-162" />
<path d="M226,79 A6.83537,6.83537 1.61957 0,1 233,72" />
<path d="M243 292h186l3 1l2 1l1 2l1 3v122l-1 3l-1 2l-2 1l-3 1h-186l-3 -1l-2 -1l-1 -2l-1 -3v-122l1 -3l1 -2l2 -1z" stroke="none" fill="#edf6fe" />
<text x="336" y="290" fill="black" stroke-width="0" text-anchor="middle" dy="-1.6">axis_trigger_unit_0</text>
<text x="336" y="430" fill="#41619f" stroke-width="0" text-anchor="middle" dy="9.6">axis_trigger_unit_v1_0</text>
<path d="M436 351h10v18h-10z" stroke="none" fill="#edf6fe" />
</g>
<g stroke="black" stroke-width="3">
<path d="M426 355v10" />
<path d="M421 360h10" />
</g>
<g stroke="black">
<path d="M419 353h14v14h-14z" />
<text x="419" y="360" fill="black" stroke-width="0" font-size="10" text-anchor="end" dy="3.66667">m_axis</text>
<path d="M226 311h10v18h-10z" stroke="none" fill="#edf6fe" />
</g>
<g stroke="black" stroke-width="3">
<path d="M245 315v10" />
<path d="M240 320h10" />
</g>
<g stroke="black">
<path d="M238 313h14v14h-14z" />
<text x="253" y="320" fill="black" stroke-width="0" font-size="10" dy="3.66667">s_axis</text>
<path d="M226 331h10v18h-10z" stroke="none" fill="#edf6fe" />
</g>
<g stroke="black" stroke-width="3">
<path d="M245 335v10" />
<path d="M240 340h10" />
</g>
<g stroke="black">
<path d="M238 333h14v14h-14z" />
<text x="253" y="340" fill="black" stroke-width="0" font-size="10" dy="3.66667">s_axi</text>
</g>
<g stroke="black" stroke-width="3">
<path d="M226 360h10" />
<text x="238" y="360" fill="black" stroke-width="0" font-size="10" dy="3.66667">aclk</text>
<circle cx="233" cy="380" r="3" />
<path d="M226 380h4" />
<text x="238" y="380" fill="black" stroke-width="0" font-size="10" dy="3.66667">aresetn</text>
<path d="M226 400h10" />
<text x="238" y="400" fill="black" stroke-width="0" font-size="10" dy="3.66667">frame_done</text>
</g>
<g stroke="#41619f">
<path d="M243 292h186" />
<path d="M429,292 A6.83537,6.83537 1.61957 0,1 436,299" />
<path d="M436 299v122" />
<path d="M436,421 A6.83537,6.83537 1.61957 0,1 429,428" />
<path d="M429 428h-186" />
<path d="M243,428 A6.83537,6.83537 1.61957 0,1 236,421" />
<path d="M236 421v-122" />
<path d="M236,299 A6.83537,6.83537 1.61957 0,1 243,292" />
<path d="M233 472h206l3 1l2 1l1 2l1 3v82l-1 3l-1 2l-2 1l-3 1h-206l-3 -1l-2 -1l-1 -2l-1 -3v-82l1 -3l1 -2l2 -1z" stroke="none" fill="#edf6fe" />
<text x="336" y="470" fill="black" stroke-width="0" text-anchor="middle" dy="-1.6">tlast_generator_0</text>
<text x="336" y="570" fill="#41619f" stroke-width="0" text-anchor="middle" dy="9.6">tlast_generator_v1_0</text>
<path d="M446 501h10v38h-10z" stroke="none" fill="#edf6fe" />
</g>
<g stroke="black" stroke-width="3">
<path d="M436 505v10" />
<path d="M431 510h10" />
</g>
<g stroke="black">
<path d="M429 503h14v14h-14z" />
<text x="429" y="510" fill="black" stroke-width="0" font-size="10" text-anchor="end" dy="3.66667">m_axis</text>
</g>
<g stroke="black" stroke-width="2">
<path d="M456 530h-10" />
<path d="M425 525l8 5l-8 5z" stroke="none" fill="black" />
<text x="424" y="530" fill="black" stroke-width="0" font-size="10" text-anchor="end" dy="3.66667">m_axis_tlast</text>
<path d="M216 491h10v18h-10z" stroke="none" fill="#edf6fe" />
</g>
<g stroke="black" stroke-width="3">
<path d="M235 495v10" />
<path d="M230 500h10" />
</g>
<g stroke="black">
<path d="M228 493h14v14h-14z" />
<text x="243" y="500" fill="black" stroke-width="0" font-size="10" dy="3.66667">s_axis</text>
</g>
<g stroke="black" stroke-width="3">
<path d="M216 520h10" />
<text x="228" y="520" fill="black" stroke-width="0" font-size="10" dy="3.66667">aclk</text>
<circle cx="223" cy="540" r="3" />
<path d="M216 540h4" />
<text x="228" y="540" fill="black" stroke-width="0" font-size="10" dy="3.66667">aresetn</text>
</g>
<g stroke="#41619f">
<path d="M233 472h206" />
<path d="M439,472 A6.83537,6.83537 1.61957 0,1 446,479" />
<path d="M446 479v82" />
<path d="M446,561 A6.83537,6.83537 1.61957 0,1 439,568" />
<path d="M439 568h-206" />
<path d="M233,568 A6.83537,6.83537 1.61957 0,1 226,561" />
<path d="M226 561v-82" />
<path d="M226,479 A6.83537,6.83537 1.61957 0,1 233,472" />
<path d="M563 302h226l3 1l2 1l1 2l1 3v82l-1 3l-1 2l-2 1l-3 1h-226l-3 -1l-2 -1l-1 -2l-1 -3v-82l1 -3l1 -2l2 -1z" stroke="none" fill="#edf6fe" />
<text x="676" y="300" fill="black" stroke-width="0" text-anchor="middle" dy="-1.6">axis_broadcaster_0</text>
<text x="676" y="400" fill="#41619f" stroke-width="0" text-anchor="middle" dy="9.6">AXI4-Stream Broadcaster</text>
<path d="M546 321h10v18h-10z" stroke="none" fill="#edf6fe" />
</g>
<g stroke="black" stroke-width="3">
<path d="M565 325v10" />
<path d="M560 330h10" />
</g>
<g stroke="black">
<path d="M558 323h14v14h-14z" />
<text x="573" y="330" fill="black" stroke-width="0" font-size="10" dy="3.66667">S_AXIS</text>
<path d="M796 331h10v18h-10z" stroke="none" fill="#edf6fe" />
</g>
<g stroke="black" stroke-width="3">
<path d="M786 335v10" />
<path d="M781 340h10" />
</g>
<g stroke="black">
<path d="M779 333h14v14h-14z" />
<text x="779" y="340" fill="black" stroke-width="0" font-size="10" text-anchor="end" dy="3.66667">M00_AXIS</text>
<path d="M796 351h10v18h-10z" stroke="none" fill="#edf6fe" />
</g>
<g stroke="black" stroke-width="3">
<path d="M786 355v10" />
<path d="M781 360h10" />
</g>
<g stroke="black">
<path d="M779 353h14v14h-14z" />
<text x="779" y="360" fill="black" stroke-width="0" font-size="10" text-anchor="end" dy="3.66667">M01_AXIS</text>
</g>
<g stroke="black" stroke-width="3">
<path d="M546 350h10" />
<text x="558" y="350" fill="black" stroke-width="0" font-size="10" dy="3.66667">aclk</text>
<circle cx="553" cy="370" r="3" />
<path d="M546 370h4" />
<text x="558" y="370" fill="black" stroke-width="0" font-size="10" dy="3.66667">aresetn</text>
</g>
<g stroke="#41619f">
<path d="M563 302h226" />
<path d="M789,302 A6.83537,6.83537 1.61957 0,1 796,309" />
<path d="M796 309v82" />
<path d="M796,391 A6.83537,6.83537 1.61957 0,1 789,398" />
<path d="M789 398h-226" />
<path d="M563,398 A6.83537,6.83537 1.61957 0,1 556,391" />
<path d="M556 391v-82" />
<path d="M556,309 A6.83537,6.83537 1.61957 0,1 563,302" />
<path d="M963 342h86l3 1l2 1l1 2l1 3v42l-1 3l-1 2l-2 1l-3 1h-86l-3 -1l-2 -1l-1 -2l-1 -3v-42l1 -3l1 -2l2 -1z" stroke="none" fill="#edf6fe" />
<text x="1006" y="340" fill="black" stroke-width="0" text-anchor="middle" dy="-1.6">xlconstant_1</text>
<text x="1006" y="400" fill="#41619f" stroke-width="0" text-anchor="middle" dy="9.6">Constant</text>
</g>
<g stroke="black" stroke-width="5">
<path d="M1066 370h-10" />
<text x="1054" y="370" fill="black" stroke-width="0" font-size="10" text-anchor="end" dy="3.66667">dout[0:0]</text>
</g>
<g stroke="#41619f">
<path d="M963 342h86" />
<path d="M1049,342 A6.83537,6.83537 1.61957 0,1 1056,349" />
<path d="M1056 349v42" />
<path d="M1056,391 A6.83537,6.83537 1.61957 0,1 1049,398" />
<path d="M1049 398h-86" />
<path d="M963,398 A6.83537,6.83537 1.61957 0,1 956,391" />
<path d="M956 391v-42" />
<path d="M956,349 A6.83537,6.83537 1.61957 0,1 963,342" />
<path d="M963 442h86l3 1l2 1l1 2l1 3v42l-1 3l-1 2l-2 1l-3 1h-86l-3 -1l-2 -1l-1 -2l-1 -3v-42l1 -3l1 -2l2 -1z" stroke="none" fill="#edf6fe" />
<text x="1006" y="440" fill="black" stroke-width="0" text-anchor="middle" dy="-1.6">xlconstant_0</text>
<text x="1006" y="500" fill="#41619f" stroke-width="0" text-anchor="middle" dy="9.6">Constant</text>
</g>
<g stroke="black" stroke-width="5">
<path d="M1066 470h-10" />
<text x="1054" y="470" fill="black" stroke-width="0" font-size="10" text-anchor="end" dy="3.66667">dout[7:0]</text>
</g>
<g stroke="#41619f">
<path d="M963 442h86" />
<path d="M1049,442 A6.83537,6.83537 1.61957 0,1 1056,449" />
<path d="M1056 449v42" />
<path d="M1056,491 A6.83537,6.83537 1.61957 0,1 1049,498" />
<path d="M1049 498h-86" />
<path d="M963,498 A6.83537,6.83537 1.61957 0,1 956,491" />
<path d="M956 491v-42" />
<path d="M956,449 A6.83537,6.83537 1.61957 0,1 963,442" />
<path d="M893 562h226l3 1l2 1l1 2l1 3v82l-1 3l-1 2l-2 1l-3 1h-226l-3 -1l-2 -1l-1 -2l-1 -3v-82l1 -3l1 -2l2 -1z" stroke="none" fill="#edf6fe" />
<text x="1006" y="560" fill="black" stroke-width="0" text-anchor="middle" dy="-1.6">axis_subset_converter_0</text>
<text x="1006" y="660" fill="#41619f" stroke-width="0" text-anchor="middle" dy="9.6">AXI4-Stream Subset Converter</text>
<path d="M876 581h10v18h-10z" stroke="none" fill="#edf6fe" />
</g>
<g stroke="black" stroke-width="3">
<path d="M895 585v10" />
<path d="M890 590h10" />
</g>
<g stroke="black">
<path d="M888 583h14v14h-14z" />
<text x="903" y="590" fill="black" stroke-width="0" font-size="10" dy="3.66667">S_AXIS</text>
<path d="M1126 601h10v18h-10z" stroke="none" fill="#edf6fe" />
</g>
<g stroke="black" stroke-width="3">
<path d="M1116 605v10" />
<path d="M1111 610h10" />
</g>
<g stroke="black">
<path d="M1109 603h14v14h-14z" />
<text x="1109" y="610" fill="black" stroke-width="0" font-size="10" text-anchor="end" dy="3.66667">M_AXIS</text>
</g>
<g stroke="black" stroke-width="3">
<path d="M876 610h10" />
<text x="888" y="610" fill="black" stroke-width="0" font-size="10" dy="3.66667">aclk</text>
<circle cx="883" cy="630" r="3" />
<path d="M876 630h4" />
<text x="888" y="630" fill="black" stroke-width="0" font-size="10" dy="3.66667">aresetn</text>
</g>
<g stroke="#41619f">
<path d="M893 562h226" />
<path d="M1119,562 A6.83537,6.83537 1.61957 0,1 1126,569" />
<path d="M1126 569v82" />
<path d="M1126,651 A6.83537,6.83537 1.61957 0,1 1119,658" />
<path d="M1119 658h-226" />
<path d="M893,658 A6.83537,6.83537 1.61957 0,1 886,651" />
<path d="M886 651v-82" />
<path d="M886,569 A6.83537,6.83537 1.61957 0,1 893,562" />
<path d="M1253 342h346l3 1l2 1l1 2l1 3v182l-1 3l-1 2l-2 1l-3 1h-346l-3 -1l-2 -1l-1 -2l-1 -3v-182l1 -3l1 -2l2 -1z" stroke="none" fill="#edf6fe" />
<text x="1426" y="340" fill="black" stroke-width="0" text-anchor="middle" dy="-1.6">xfft_0</text>
<text x="1426" y="540" fill="#41619f" stroke-width="0" text-anchor="middle" dy="9.6">Fast Fourier Transform</text>
<path d="M1236 391h10v18h-10z" stroke="none" fill="#edf6fe" />
</g>
<g stroke="black" stroke-width="3">
<path d="M1255 395v10" />
<path d="M1250 400h10" />
</g>
<g stroke="black">
<path d="M1248 393h14v14h-14z" />
<text x="1263" y="400" fill="black" stroke-width="0" font-size="10" dy="3.66667">S_AXIS_DATA</text>
<path d="M1606 361h10v18h-10z" stroke="none" fill="#edf6fe" />
</g>
<g stroke="black" stroke-width="3">
<path d="M1596 365v10" />
<path d="M1591 370h10" />
</g>
<g stroke="black">
<path d="M1589 363h14v14h-14z" />
<text x="1589" y="370" fill="black" stroke-width="0" font-size="10" text-anchor="end" dy="3.66667">M_AXIS_STATUS</text>
<path d="M1606 381h10v18h-10z" stroke="none" fill="#edf6fe" />
</g>
<g stroke="black" stroke-width="3">
<path d="M1596 385v10" />
<path d="M1591 390h10" />
</g>
<g stroke="black">
<path d="M1589 383h14v14h-14z" />
<text x="1589" y="390" fill="black" stroke-width="0" font-size="10" text-anchor="end" dy="3.66667">M_AXIS_DATA</text>
<path d="M1236 411h10v58h-10z" stroke="none" fill="#edf6fe" />
</g>
<g stroke="black" stroke-width="3">
<path d="M1255 415v10" />
<path d="M1250 420h10" />
</g>
<g stroke="black">
<path d="M1248 413h14v14h-14z" />
<text x="1263" y="420" fill="black" stroke-width="0" font-size="10" dy="3.66667">S_AXIS_CONFIG</text>
</g>
<g stroke="black" stroke-width="3">
<path d="M1236 440h10" />
<path d="M1259 435l8 5l-8 5z" stroke="none" fill="black" />
<text x="1268" y="440" fill="black" stroke-width="0" font-size="10" dy="3.66667">s_axis_config_tdata[7:0]</text>
</g>
<g stroke="black" stroke-width="2">
<path d="M1236 460h10" />
<path d="M1259 455l8 5l-8 5z" stroke="none" fill="black" />
<text x="1268" y="460" fill="black" stroke-width="0" font-size="10" dy="3.66667">s_axis_config_tvalid</text>
</g>
<g stroke="black" stroke-width="3">
<path d="M1236 480h10" />
<text x="1248" y="480" fill="black" stroke-width="0" font-size="10" dy="3.66667">aclk</text>
<path d="M1616 410h-10" />
<text x="1604" y="410" fill="black" stroke-width="0" font-size="10" text-anchor="end" dy="3.66667">event_frame_started</text>
<path d="M1616 430h-10" />
<text x="1604" y="430" fill="black" stroke-width="0" font-size="10" text-anchor="end" dy="3.66667">event_tlast_unexpected</text>
<path d="M1616 450h-10" />
<text x="1604" y="450" fill="black" stroke-width="0" font-size="10" text-anchor="end" dy="3.66667">event_tlast_missing</text>
<path d="M1616 470h-10" />
<text x="1604" y="470" fill="black" stroke-width="0" font-size="10" text-anchor="end" dy="3.66667">event_status_channel_halt</text>
<path d="M1616 490h-10" />
<text x="1604" y="490" fill="black" stroke-width="0" font-size="10" text-anchor="end" dy="3.66667">event_data_in_channel_halt</text>
<path d="M1616 510h-10" />
<text x="1604" y="510" fill="black" stroke-width="0" font-size="10" text-anchor="end" dy="3.66667">event_data_out_channel_halt</text>
</g>
<g stroke="#41619f">
<path d="M1253 342h346" />
<path d="M1599,342 A6.83537,6.83537 1.61957 0,1 1606,349" />
<path d="M1606 349v182" />
<path d="M1606,531 A6.83537,6.83537 1.61957 0,1 1599,538" />
<path d="M1599 538h-346" />
<path d="M1253,538 A6.83537,6.83537 1.61957 0,1 1246,531" />
<path d="M1246 531v-182" />
<path d="M1246,349 A6.83537,6.83537 1.61957 0,1 1253,342" />
<path d="M1303 622h246l3 1l2 1l1 2l1 3v82l-1 3l-1 2l-2 1l-3 1h-246l-3 -1l-2 -1l-1 -2l-1 -3v-82l1 -3l1 -2l2 -1z" stroke="none" fill="#edf6fe" />
<text x="1426" y="620" fill="black" stroke-width="0" text-anchor="middle" dy="-1.6">cordic_0</text>
<text x="1426" y="720" fill="#41619f" stroke-width="0" text-anchor="middle" dy="9.6">CORDIC</text>
<path d="M1286 641h10v18h-10z" stroke="none" fill="#edf6fe" />
</g>
<g stroke="black" stroke-width="3">
<path d="M1305 645v10" />
<path d="M1300 650h10" />
</g>
<g stroke="black">
<path d="M1298 643h14v14h-14z" />
<text x="1313" y="650" fill="black" stroke-width="0" font-size="10" dy="3.66667">S_AXIS_CARTESIAN</text>
<path d="M1556 661h10v18h-10z" stroke="none" fill="#edf6fe" />
</g>
<g stroke="black" stroke-width="3">
<path d="M1546 665v10" />
<path d="M1541 670h10" />
</g>
<g stroke="black">
<path d="M1539 663h14v14h-14z" />
<text x="1539" y="670" fill="black" stroke-width="0" font-size="10" text-anchor="end" dy="3.66667">M_AXIS_DOUT</text>
</g>
<g stroke="black" stroke-width="3">
<path d="M1286 670h10" />
<text x="1298" y="670" fill="black" stroke-width="0" font-size="10" dy="3.66667">aclk</text>
<circle cx="1293" cy="690" r="3" />
<path d="M1286 690h4" />
<text x="1298" y="690" fill="black" stroke-width="0" font-size="10" dy="3.66667">aresetn</text>
</g>
<g stroke="#41619f">
<path d="M1303 622h246" />
<path d="M1549,622 A6.83537,6.83537 1.61957 0,1 1556,629" />
<path d="M1556 629v82" />
<path d="M1556,711 A6.83537,6.83537 1.61957 0,1 1549,718" />
<path d="M1549 718h-246" />
<path d="M1303,718 A6.83537,6.83537 1.61957 0,1 1296,711" />
<path d="M1296 711v-82" />
<path d="M1296,629 A6.83537,6.83537 1.61957 0,1 1303,622" />
<path d="M1723 112h306l3 1l2 1l1 2l1 3v142l-1 3l-1 2l-2 1l-3 1h-306l-3 -1l-2 -1l-1 -2l-1 -3v-142l1 -3l1 -2l2 -1z" stroke="none" fill="#edf6fe" />
<text x="1876" y="110" fill="black" stroke-width="0" text-anchor="middle" dy="-1.6">axi_dma_0</text>
<text x="1876" y="270" fill="#41619f" stroke-width="0" text-anchor="middle" dy="9.6">AXI Direct Memory Access</text>
<path d="M1706 131h10v18h-10z" stroke="none" fill="#edf6fe" />
</g>
<g stroke="black" stroke-width="3">
<path d="M1725 135v10" />
<path d="M1720 140h10" />
</g>
<g stroke="black">
<path d="M1718 133h14v14h-14z" />
<text x="1733" y="140" fill="black" stroke-width="0" font-size="10" dy="3.66667">S_AXI_LITE</text>
<path d="M2036 161h10v18h-10z" stroke="none" fill="#edf6fe" />
</g>
<g stroke="black" stroke-width="3">
<path d="M2026 165v10" />
<path d="M2021 170h10" />
</g>
<g stroke="black">
<path d="M2019 163h14v14h-14z" />
<text x="2019" y="170" fill="black" stroke-width="0" font-size="10" text-anchor="end" dy="3.66667">M_AXI_S2MM</text>
<path d="M1706 151h10v38h-10z" stroke="none" fill="#edf6fe" />
</g>
<g stroke="black" stroke-width="3">
<path d="M1725 155v10" />
<path d="M1720 160h10" />
</g>
<g stroke="black">
<path d="M1718 153h14v14h-14z" />
<text x="1733" y="160" fill="black" stroke-width="0" font-size="10" dy="3.66667">S_AXIS_S2MM</text>
</g>
<g stroke="black" stroke-width="2">
<path d="M1706 180h10" />
<path d="M1729 175l8 5l-8 5z" stroke="none" fill="black" />
<text x="1738" y="180" fill="black" stroke-width="0" font-size="10" dy="3.66667">s_axis_s2mm_tlast</text>
</g>
<g stroke="black" stroke-width="3">
<path d="M1706 200h10" />
<text x="1718" y="200" fill="black" stroke-width="0" font-size="10" dy="3.66667">s_axi_lite_aclk</text>
<path d="M1706 220h10" />
<text x="1718" y="220" fill="black" stroke-width="0" font-size="10" dy="3.66667">m_axi_s2mm_aclk</text>
<circle cx="1713" cy="240" r="3" />
<path d="M1706 240h4" />
<text x="1718" y="240" fill="black" stroke-width="0" font-size="10" dy="3.66667">axi_resetn</text>
<circle cx="2039" cy="190" r="3" />
<path d="M2046 190h-4" />
<text x="2034" y="190" fill="black" stroke-width="0" font-size="10" text-anchor="end" dy="3.66667">s2mm_prmry_reset_out_n</text>
<path d="M2046 210h-10" />
<text x="2034" y="210" fill="black" stroke-width="0" font-size="10" text-anchor="end" dy="3.66667">s2mm_introut</text>
</g>
<g stroke="#41619f">
<path d="M1723 112h306" />
<path d="M2029,112 A6.83537,6.83537 1.61957 0,1 2036,119" />
<path d="M2036 119v142" />
<path d="M2036,261 A6.83537,6.83537 1.61957 0,1 2029,268" />
<path d="M2029 268h-306" />
<path d="M1723,268 A6.83537,6.83537 1.61957 0,1 1716,261" />
<path d="M1716 261v-142" />
<path d="M1716,119 A6.83537,6.83537 1.61957 0,1 1723,112" />
<path d="M1743 362h266l3 1l2 1l1 2l1 3v122l-1 3l-1 2l-2 1l-3 1h-266l-3 -1l-2 -1l-1 -2l-1 -3v-122l1 -3l1 -2l2 -1z" stroke="none" fill="#edf6fe" />
<text x="1876" y="360" fill="black" stroke-width="0" text-anchor="middle" dy="-1.6">axi_dma_1</text>
<text x="1876" y="500" fill="#41619f" stroke-width="0" text-anchor="middle" dy="9.6">AXI Direct Memory Access</text>
<path d="M1726 381h10v18h-10z" stroke="none" fill="#edf6fe" />
</g>
<g stroke="black" stroke-width="3">
<path d="M1745 385v10" />
<path d="M1740 390h10" />
</g>
<g stroke="black">
<path d="M1738 383h14v14h-14z" />
<text x="1753" y="390" fill="black" stroke-width="0" font-size="10" dy="3.66667">S_AXI_LITE</text>
<path d="M2016 401h10v18h-10z" stroke="none" fill="#edf6fe" />
</g>
<g stroke="black" stroke-width="3">
<path d="M2006 405v10" />
<path d="M2001 410h10" />
</g>
<g stroke="black">
<path d="M1999 403h14v14h-14z" />
<text x="1999" y="410" fill="black" stroke-width="0" font-size="10" text-anchor="end" dy="3.66667">M_AXI_S2MM</text>
<path d="M1726 401h10v18h-10z" stroke="none" fill="#edf6fe" />
</g>
<g stroke="black" stroke-width="3">
<path d="M1745 405v10" />
<path d="M1740 410h10" />
</g>
<g stroke="black">
<path d="M1738 403h14v14h-14z" />
<text x="1753" y="410" fill="black" stroke-width="0" font-size="10" dy="3.66667">S_AXIS_S2MM</text>
</g>
<g stroke="black" stroke-width="3">
<path d="M1726 430h10" />
<text x="1738" y="430" fill="black" stroke-width="0" font-size="10" dy="3.66667">s_axi_lite_aclk</text>
<path d="M1726 450h10" />
<text x="1738" y="450" fill="black" stroke-width="0" font-size="10" dy="3.66667">m_axi_s2mm_aclk</text>
<circle cx="1733" cy="470" r="3" />
<path d="M1726 470h4" />
<text x="1738" y="470" fill="black" stroke-width="0" font-size="10" dy="3.66667">axi_resetn</text>
<circle cx="2019" cy="430" r="3" />
<path d="M2026 430h-4" />
<text x="2014" y="430" fill="black" stroke-width="0" font-size="10" text-anchor="end" dy="3.66667">s2mm_prmry_reset_out_n</text>
<path d="M2026 450h-10" />
<text x="2014" y="450" fill="black" stroke-width="0" font-size="10" text-anchor="end" dy="3.66667">s2mm_introut</text>
</g>
<g stroke="#41619f">
<path d="M1743 362h266" />
<path d="M2009,362 A6.83537,6.83537 1.61957 0,1 2016,369" />
<path d="M2016 369v122" />
<path d="M2016,491 A6.83537,6.83537 1.61957 0,1 2009,498" />
<path d="M2009 498h-266" />
<path d="M1743,498 A6.83537,6.83537 1.61957 0,1 1736,491" />
<path d="M1736 491v-122" />
<path d="M1736,369 A6.83537,6.83537 1.61957 0,1 1743,362" />
<path d="M1763 562h226l3 1l2 1l1 2l1 3v82l-1 3l-1 2l-2 1l-3 1h-226l-3 -1l-2 -1l-1 -2l-1 -3v-82l1 -3l1 -2l2 -1z" stroke="none" fill="#edf6fe" />
<text x="1876" y="560" fill="black" stroke-width="0" text-anchor="middle" dy="-1.6">axis_subset_converter_1</text>
<text x="1876" y="660" fill="#41619f" stroke-width="0" text-anchor="middle" dy="9.6">AXI4-Stream Subset Converter</text>
<path d="M1746 581h10v18h-10z" stroke="none" fill="#edf6fe" />
</g>
<g stroke="black" stroke-width="3">
<path d="M1765 585v10" />
<path d="M1760 590h10" />
</g>
<g stroke="black">
<path d="M1758 583h14v14h-14z" />
<text x="1773" y="590" fill="black" stroke-width="0" font-size="10" dy="3.66667">S_AXIS</text>
<path d="M1996 601h10v18h-10z" stroke="none" fill="#edf6fe" />
</g>
<g stroke="black" stroke-width="3">
<path d="M1986 605v10" />
<path d="M1981 610h10" />
</g>
<g stroke="black">
<path d="M1979 603h14v14h-14z" />
<text x="1979" y="610" fill="black" stroke-width="0" font-size="10" text-anchor="end" dy="3.66667">M_AXIS</text>
</g>
<g stroke="black" stroke-width="3">
<path d="M1746 610h10" />
<text x="1758" y="610" fill="black" stroke-width="0" font-size="10" dy="3.66667">aclk</text>
<circle cx="1753" cy="630" r="3" />
<path d="M1746 630h4" />
<text x="1758" y="630" fill="black" stroke-width="0" font-size="10" dy="3.66667">aresetn</text>
</g>
<g stroke="#41619f">
<path d="M1763 562h226" />
<path d="M1989,562 A6.83537,6.83537 1.61957 0,1 1996,569" />
<path d="M1996 569v82" />
<path d="M1996,651 A6.83537,6.83537 1.61957 0,1 1989,658" />
<path d="M1989 658h-226" />
<path d="M1763,658 A6.83537,6.83537 1.61957 0,1 1756,651" />
<path d="M1756 651v-82" />
<path d="M1756,569 A6.83537,6.83537 1.61957 0,1 1763,562" />
<path d="M2183 132h206l3 1l2 1l1 2l1 3v122l-1 3l-1 2l-2 1l-3 1h-206l-3 -1l-2 -1l-1 -2l-1 -3v-122l1 -3l1 -2l2 -1z" stroke="none" fill="#edf6fe" />
<text x="2286" y="130" fill="black" stroke-width="0" text-anchor="middle" dy="-1.6">axi_smc_0</text>
<text x="2286" y="270" fill="#41619f" stroke-width="0" text-anchor="middle" dy="9.6">AXI SmartConnect</text>
<path d="M2166 171h10v18h-10z" stroke="none" fill="#edf6fe" />
</g>
<g stroke="black" stroke-width="3">
<path d="M2185 175v10" />
<path d="M2180 180h10" />
</g>
<g stroke="black">
<path d="M2178 173h14v14h-14z" />
<text x="2193" y="180" fill="black" stroke-width="0" font-size="10" dy="3.66667">S00_AXI</text>
<path d="M2396 151h10v18h-10z" stroke="none" fill="#edf6fe" />
</g>
<g stroke="black" stroke-width="3">
<path d="M2386 155v10" />
<path d="M2381 160h10" />
</g>
<g stroke="black">
<path d="M2379 153h14v14h-14z" />
<text x="2379" y="160" fill="black" stroke-width="0" font-size="10" text-anchor="end" dy="3.66667">M00_AXI</text>
<path d="M2396 171h10v18h-10z" stroke="none" fill="#edf6fe" />
</g>
<g stroke="black" stroke-width="3">
<path d="M2386 175v10" />
<path d="M2381 180h10" />
</g>
<g stroke="black">
<path d="M2379 173h14v14h-14z" />
<text x="2379" y="180" fill="black" stroke-width="0" font-size="10" text-anchor="end" dy="3.66667">M01_AXI</text>
<path d="M2396 191h10v18h-10z" stroke="none" fill="#edf6fe" />
</g>
<g stroke="black" stroke-width="3">
<path d="M2386 195v10" />
<path d="M2381 200h10" />
</g>
<g stroke="black">
<path d="M2379 193h14v14h-14z" />
<text x="2379" y="200" fill="black" stroke-width="0" font-size="10" text-anchor="end" dy="3.66667">M02_AXI</text>
<path d="M2396 211h10v18h-10z" stroke="none" fill="#edf6fe" />
</g>
<g stroke="black" stroke-width="3">
<path d="M2386 215v10" />
<path d="M2381 220h10" />
</g>
<g stroke="black">
<path d="M2379 213h14v14h-14z" />
<text x="2379" y="220" fill="black" stroke-width="0" font-size="10" text-anchor="end" dy="3.66667">M03_AXI</text>
<path d="M2396 231h10v18h-10z" stroke="none" fill="#edf6fe" />
</g>
<g stroke="black" stroke-width="3">
<path d="M2386 235v10" />
<path d="M2381 240h10" />
</g>
<g stroke="black">
<path d="M2379 233h14v14h-14z" />
<text x="2379" y="240" fill="black" stroke-width="0" font-size="10" text-anchor="end" dy="3.66667">M04_AXI</text>
</g>
<g stroke="black" stroke-width="3">
<path d="M2166 200h10" />
<text x="2178" y="200" fill="black" stroke-width="0" font-size="10" dy="3.66667">aclk</text>
<circle cx="2173" cy="220" r="3" />
<path d="M2166 220h4" />
<text x="2178" y="220" fill="black" stroke-width="0" font-size="10" dy="3.66667">aresetn</text>
</g>
<g stroke="#41619f">
<path d="M2183 132h206" />
<path d="M2389,132 A6.83537,6.83537 1.61957 0,1 2396,139" />
<path d="M2396 139v122" />
<path d="M2396,261 A6.83537,6.83537 1.61957 0,1 2389,268" />
<path d="M2389 268h-206" />
<path d="M2183,268 A6.83537,6.83537 1.61957 0,1 2176,261" />
<path d="M2176 261v-122" />
<path d="M2176,139 A6.83537,6.83537 1.61957 0,1 2183,132" />
<path d="M2183 362h206l3 1l2 1l1 2l1 3v102l-1 3l-1 2l-2 1l-3 1h-206l-3 -1l-2 -1l-1 -2l-1 -3v-102l1 -3l1 -2l2 -1z" stroke="none" fill="#edf6fe" />
<text x="2286" y="360" fill="black" stroke-width="0" text-anchor="middle" dy="-1.6">axi_smc_1</text>
<text x="2286" y="480" fill="#41619f" stroke-width="0" text-anchor="middle" dy="9.6">AXI SmartConnect</text>
<path d="M2166 381h10v18h-10z" stroke="none" fill="#edf6fe" />
</g>
<g stroke="black" stroke-width="3">
<path d="M2185 385v10" />
<path d="M2180 390h10" />
</g>
<g stroke="black">
<path d="M2178 383h14v14h-14z" />
<text x="2193" y="390" fill="black" stroke-width="0" font-size="10" dy="3.66667">S00_AXI</text>
<path d="M2166 401h10v18h-10z" stroke="none" fill="#edf6fe" />
</g>
<g stroke="black" stroke-width="3">
<path d="M2185 405v10" />
<path d="M2180 410h10" />
</g>
<g stroke="black">
<path d="M2178 403h14v14h-14z" />
<text x="2193" y="410" fill="black" stroke-width="0" font-size="10" dy="3.66667">S01_AXI</text>
<path d="M2396 411h10v18h-10z" stroke="none" fill="#edf6fe" />
</g>
<g stroke="black" stroke-width="3">
<path d="M2386 415v10" />
<path d="M2381 420h10" />
</g>
<g stroke="black">
<path d="M2379 413h14v14h-14z" />
<text x="2379" y="420" fill="black" stroke-width="0" font-size="10" text-anchor="end" dy="3.66667">M00_AXI</text>
</g>
<g stroke="black" stroke-width="3">
<path d="M2166 430h10" />
<text x="2178" y="430" fill="black" stroke-width="0" font-size="10" dy="3.66667">aclk</text>
<circle cx="2173" cy="450" r="3" />
<path d="M2166 450h4" />
<text x="2178" y="450" fill="black" stroke-width="0" font-size="10" dy="3.66667">aresetn</text>
</g>
<g stroke="#41619f">
<path d="M2183 362h206" />
<path d="M2389,362 A6.83537,6.83537 1.61957 0,1 2396,369" />
<path d="M2396 369v102" />
<path d="M2396,471 A6.83537,6.83537 1.61957 0,1 2389,478" />
<path d="M2389 478h-206" />
<path d="M2183,478 A6.83537,6.83537 1.61957 0,1 2176,471" />
<path d="M2176 471v-102" />
<path d="M2176,369 A6.83537,6.83537 1.61957 0,1 2183,362" />
<path d="M2143 522h286l3 1l2 1l1 2l1 3v122l-1 3l-1 2l-2 1l-3 1h-286l-3 -1l-2 -1l-1 -2l-1 -3v-122l1 -3l1 -2l2 -1z" stroke="none" fill="#edf6fe" />
<text x="2286" y="520" fill="black" stroke-width="0" text-anchor="middle" dy="-1.6">rst_ps7_0_100M</text>
<text x="2286" y="660" fill="#41619f" stroke-width="0" text-anchor="middle" dy="9.6">Processor System Reset</text>
</g>
<g stroke="black" stroke-width="3">
<path d="M2126 550h10" />
<text x="2138" y="550" fill="black" stroke-width="0" font-size="10" dy="3.66667">slowest_sync_clk</text>
<circle cx="2133" cy="570" r="3" />
<path d="M2126 570h4" />
<text x="2138" y="570" fill="black" stroke-width="0" font-size="10" dy="3.66667">ext_reset_in</text>
<circle cx="2133" cy="590" r="3" />
<path d="M2126 590h4" />
<text x="2138" y="590" fill="black" stroke-width="0" font-size="10" dy="3.66667">aux_reset_in</text>
<path d="M2126 610h10" />
<text x="2138" y="610" fill="black" stroke-width="0" font-size="10" dy="3.66667">mb_debug_sys_rst</text>
<path d="M2126 630h10" />
<text x="2138" y="630" fill="black" stroke-width="0" font-size="10" dy="3.66667">dcm_locked</text>
<path d="M2446 550h-10" />
<text x="2434" y="550" fill="black" stroke-width="0" font-size="10" text-anchor="end" dy="3.66667">mb_reset</text>
</g>
<g stroke="black" stroke-width="5">
<path d="M2446 570h-10" />
<text x="2434" y="570" fill="black" stroke-width="0" font-size="10" text-anchor="end" dy="3.66667">bus_struct_reset[0:0]</text>
<path d="M2446 590h-10" />
<text x="2434" y="590" fill="black" stroke-width="0" font-size="10" text-anchor="end" dy="3.66667">peripheral_reset[0:0]</text>
<circle cx="2439" cy="610" r="3" />
<path d="M2446 610h-4" />
<text x="2434" y="610" fill="black" stroke-width="0" font-size="10" text-anchor="end" dy="3.66667">interconnect_aresetn[0:0]</text>
<circle cx="2439" cy="630" r="3" />
<path d="M2446 630h-4" />
<text x="2434" y="630" fill="black" stroke-width="0" font-size="10" text-anchor="end" dy="3.66667">peripheral_aresetn[0:0]</text>
</g>
<g stroke="#41619f">
<path d="M2143 522h286" />
<path d="M2429,522 A6.83537,6.83537 1.61957 0,1 2436,529" />
<path d="M2436 529v122" />
<path d="M2436,651 A6.83537,6.83537 1.61957 0,1 2429,658" />
<path d="M2429 658h-286" />
<path d="M2143,658 A6.83537,6.83537 1.61957 0,1 2136,651" />
<path d="M2136 651v-122" />
<path d="M2136,529 A6.83537,6.83537 1.61957 0,1 2143,522" />
<path d="M2633 152h186l3 1l2 1l1 2l1 3v142l-1 3l-1 2l-2 1l-3 1h-186l-3 -1l-2 -1l-1 -2l-1 -3v-142l1 -3l1 -2l2 -1z" stroke="none" fill="#edf6fe" />
<text x="2726" y="150" fill="black" stroke-width="0" text-anchor="middle" dy="-1.6">axi_timer_0</text>
<text x="2726" y="310" fill="#41619f" stroke-width="0" text-anchor="middle" dy="9.6">AXI Timer</text>
<path d="M2616 171h10v18h-10z" stroke="none" fill="#edf6fe" />
</g>
<g stroke="black" stroke-width="3">
<path d="M2635 175v10" />
<path d="M2630 180h10" />
</g>
<g stroke="black">
<path d="M2628 173h14v14h-14z" />
<text x="2643" y="180" fill="black" stroke-width="0" font-size="10" dy="3.66667">S_AXI</text>
</g>
<g stroke="black" stroke-width="3">
<path d="M2616 200h10" />
<text x="2628" y="200" fill="black" stroke-width="0" font-size="10" dy="3.66667">capturetrig0</text>
<path d="M2616 220h10" />
<text x="2628" y="220" fill="black" stroke-width="0" font-size="10" dy="3.66667">capturetrig1</text>
<path d="M2836 200h-10" />
<text x="2824" y="200" fill="black" stroke-width="0" font-size="10" text-anchor="end" dy="3.66667">generateout0</text>
<path d="M2836 220h-10" />
<text x="2824" y="220" fill="black" stroke-width="0" font-size="10" text-anchor="end" dy="3.66667">generateout1</text>
<path d="M2836 240h-10" />
<text x="2824" y="240" fill="black" stroke-width="0" font-size="10" text-anchor="end" dy="3.66667">pwm0</text>
<path d="M2836 260h-10" />
<text x="2824" y="260" fill="black" stroke-width="0" font-size="10" text-anchor="end" dy="3.66667">interrupt</text>
<path d="M2616 240h10" />
<text x="2628" y="240" fill="black" stroke-width="0" font-size="10" dy="3.66667">freeze</text>
<path d="M2616 260h10" />
<text x="2628" y="260" fill="black" stroke-width="0" font-size="10" dy="3.66667">s_axi_aclk</text>
<circle cx="2623" cy="280" r="3" />
<path d="M2616 280h4" />
<text x="2628" y="280" fill="black" stroke-width="0" font-size="10" dy="3.66667">s_axi_aresetn</text>
</g>
<g stroke="#41619f">
<path d="M2633 152h186" />
<path d="M2819,152 A6.83537,6.83537 1.61957 0,1 2826,159" />
<path d="M2826 159v142" />
<path d="M2826,301 A6.83537,6.83537 1.61957 0,1 2819,308" />
<path d="M2819 308h-186" />
<path d="M2633,308 A6.83537,6.83537 1.61957 0,1 2626,301" />
<path d="M2626 301v-142" />
<path d="M2626,159 A6.83537,6.83537 1.61957 0,1 2633,152" />
<path d="M2553 352h346l3 1l2 1l1 2l1 3v142l-1 3l-1 2l-2 1l-3 1h-346l-3 -1l-2 -1l-1 -2l-1 -3v-142l1 -3l1 -2l2 -1z" stroke="none" fill="#edf6fe" />
<text x="2726" y="350" fill="black" stroke-width="0" text-anchor="middle" dy="-1.6">processing_system7_0</text>
<text x="2726" y="510" fill="#41619f" stroke-width="0" text-anchor="middle" dy="9.6">ZYNQ7 Processing System</text>
<path d="M2906 371h10v18h-10z" stroke="none" fill="#edf6fe" />
</g>
<g stroke="black" stroke-width="3">
<path d="M2896 375v10" />
<path d="M2891 380h10" />
</g>
<g stroke="black">
<path d="M2889 373h14v14h-14z" />
<text x="2889" y="380" fill="black" stroke-width="0" font-size="10" text-anchor="end" dy="3.66667">DDR</text>
<path d="M2906 391h10v18h-10z" stroke="none" fill="#edf6fe" />
</g>
<g stroke="black" stroke-width="3">
<path d="M2896 395v10" />
<path d="M2891 400h10" />
</g>
<g stroke="black">
<path d="M2889 393h14v14h-14z" />
<text x="2889" y="400" fill="black" stroke-width="0" font-size="10" text-anchor="end" dy="3.66667">FIXED_IO</text>
<path d="M2906 411h10v18h-10z" stroke="none" fill="#edf6fe" />
</g>
<g stroke="black" stroke-width="3">
<path d="M2896 415v10" />
<path d="M2891 420h10" />
</g>
<g stroke="black">
<path d="M2889 413h14v14h-14z" />
<text x="2889" y="420" fill="black" stroke-width="0" font-size="10" text-anchor="end" dy="3.66667">USBIND_0</text>
<path d="M2536 391h10v18h-10z" stroke="none" fill="#edf6fe" />
</g>
<g stroke="black" stroke-width="3">
<path d="M2555 395v10" />
<path d="M2550 400h10" />
</g>
<g stroke="black">
<path d="M2548 393h14v14h-14z" />
<text x="2563" y="400" fill="black" stroke-width="0" font-size="10" dy="3.66667">S_AXI_HP0_FIFO_CTRL</text>
<path d="M2906 431h10v18h-10z" stroke="none" fill="#edf6fe" />
</g>
<g stroke="black" stroke-width="3">
<path d="M2896 435v10" />
<path d="M2891 440h10" />
</g>
<g stroke="black">
<path d="M2889 433h14v14h-14z" />
<text x="2889" y="440" fill="black" stroke-width="0" font-size="10" text-anchor="end" dy="3.66667">M_AXI_GP0</text>
<path d="M2536 411h10v18h-10z" stroke="none" fill="#edf6fe" />
</g>
<g stroke="black" stroke-width="3">
<path d="M2555 415v10" />
<path d="M2550 420h10" />
</g>
<g stroke="black">
<path d="M2548 413h14v14h-14z" />
<text x="2563" y="420" fill="black" stroke-width="0" font-size="10" dy="3.66667">S_AXI_HP0</text>
</g>
<g stroke="black" stroke-width="3">
<path d="M2536 440h10" />
<text x="2548" y="440" fill="black" stroke-width="0" font-size="10" dy="3.66667">M_AXI_GP0_ACLK</text>
<path d="M2536 460h10" />
<text x="2548" y="460" fill="black" stroke-width="0" font-size="10" dy="3.66667">S_AXI_HP0_ACLK</text>
<path d="M2916 460h-10" />
<text x="2904" y="460" fill="black" stroke-width="0" font-size="10" text-anchor="end" dy="3.66667">FCLK_CLK0</text>
<circle cx="2909" cy="480" r="3" />
<path d="M2916 480h-4" />
<text x="2904" y="480" fill="black" stroke-width="0" font-size="10" text-anchor="end" dy="3.66667">FCLK_RESET0_N</text>
</g>
<g stroke="#41619f">
<path d="M2553 352h346" />
<path d="M2899,352 A6.83537,6.83537 1.61957 0,1 2906,359" />
<path d="M2906 359v142" />
<path d="M2906,501 A6.83537,6.83537 1.61957 0,1 2899,508" />
<path d="M2899 508h-346" />
<path d="M2553,508 A6.83537,6.83537 1.61957 0,1 2546,501" />
<path d="M2546 501v-142" />
<path d="M2546,359 A6.83537,6.83537 1.61957 0,1 2553,352" />
<path d="M2976 350v-7h14l7 7l-7 7h-14z" stroke="none" fill="#ddd4d0" />
</g>
<g stroke="#2a5e6f" stroke-width="3">
<path d="M2976 350v-7h14l7 7l-7 7h-14z" />
<text x="3001" y="350" fill="black" stroke-width="0" dy="4.4">FIXED_IO</text>
<path d="M2976 380v-7h14l7 7l-7 7h-14z" stroke="none" fill="#ddd4d0" />
<path d="M2976 380v-7h14l7 7l-7 7h-14z" />
<text x="3001" y="380" fill="black" stroke-width="0" dy="4.4">DDR</text>
</g>
<g stroke="#41619f" stroke-width="4">
<path d="M106 160h20v-20h90" />
<path d="M106 190h30v-30h80" />
<path d="M106 130h20v-10h90" />
<path d="M2046 170h50v220h70" />
<path d="M2026 410h140" />
<path d="M216 100h-40v-80h2320v140h-90" />
<path d="M1706 140h-20v-90h790v130h-70" />
<path d="M2406 200h90v-20h120" />
<path d="M226 340h-40v-310h2300v190h-80" />
<path d="M1726 390h-50v-320h790v170h-60" />
<path d="M806 340h20v-180h880" />
<path d="M806 360h20v230h50" />
<path d="M1136 610h20v-210h80" />
<path d="M1726 410h-40v-80h380v280h-60" />
<path d="M216 500h-20v100h280v-240h-30" />
<path d="M1566 670h110v-80h70" />
<path d="M2916 380h60" />
</g>
<g>
<path d="M216 180h-40v430h340v-260h30" />
<path d="M516 530h340v80h20" />
<path d="M856 530h340" />
<path d="M1196 570h460" />
<path d="M1656 450h70" />
<path d="M1656 430h70" />
<path d="M1656 220h50" />
<path d="M1656 200h50" />
<path d="M1654 568h5v5h-5z" stroke="none" fill="#102235" />
<path d="M1654 448h5v5h-5z" stroke="none" fill="#102235" />
<path d="M1654 428h5v5h-5z" stroke="none" fill="#102235" />
<path d="M1654 218h5v5h-5z" stroke="none" fill="#102235" />
<path d="M1654 198h5v5h-5z" stroke="none" fill="#102235" />
<path d="M176 200h40" />
<path d="M176 360h50" />
<path d="M176 520h40" />
<path d="M174 198h5v5h-5z" stroke="none" fill="#102235" />
<path d="M174 358h5v5h-5z" stroke="none" fill="#102235" />
<path d="M174 518h5v5h-5z" stroke="none" fill="#102235" />
<path d="M514 528h5v5h-5z" stroke="none" fill="#102235" />
<path d="M854 528h5v5h-5z" stroke="none" fill="#102235" />
<path d="M1236 480h-40v190h90" />
<path d="M1194 528h5v5h-5z" stroke="none" fill="#102235" />
<path d="M1194 568h5v5h-5z" stroke="none" fill="#102235" />
<path d="M1746 610h-90v-530h430v470h40" />
<path d="M2086 200h80" />
<path d="M2086 300h390" />
<path d="M2476 440h60" />
<path d="M2476 460h60" />
<path d="M2474 298h5v5h-5z" stroke="none" fill="#102235" />
<path d="M2474 438h5v5h-5z" stroke="none" fill="#102235" />
<path d="M2474 458h5v5h-5z" stroke="none" fill="#102235" />
<path d="M2086 430h80" />
<path d="M2084 198h5v5h-5z" stroke="none" fill="#102235" />
<path d="M2084 298h5v5h-5z" stroke="none" fill="#102235" />
<path d="M2084 428h5v5h-5z" stroke="none" fill="#102235" />
<path d="M2616 260h-140v280h470v-80h-30" />
<path d="M2126 570h-20v120h830v-210h-20" />
</g>
<g stroke="#41619f" stroke-width="4">
<path d="M2916 400h40v-50h20" />
<path d="M2166 180h-60v-80h840v340h-30" />
</g>
<g stroke-width="3">
<path d="M216 220h-60v400h370" />
<path d="M523 617h7v7h-7z" stroke="none" fill="#102235" />
<path d="M156 380h70" />
<path d="M156 540h60" />
<path d="M153 377h7v7h-7z" stroke="none" fill="#102235" />
<path d="M153 537h7v7h-7z" stroke="none" fill="#102235" />
<path d="M546 370h-20v250h330v70h350" />
<path d="M1203 687h7v7h-7z" stroke="none" fill="#102235" />
<path d="M1706 240h-40v390h80" />
<path d="M1666 300h410" />
<path d="M2076 310h430" />
<path d="M2503 307h7v7h-7z" stroke="none" fill="#102235" />
<path d="M856 630h20" />
<path d="M853 627h7v7h-7z" stroke="none" fill="#102235" />
<path d="M1286 690h-80v-100h460" />
<path d="M1663 297h7v7h-7z" stroke="none" fill="#102235" />
<path d="M1663 467h7v7h-7z" stroke="none" fill="#102235" />
<path d="M1663 587h7v7h-7z" stroke="none" fill="#102235" />
<path d="M2166 220h-90v230h90" />
<path d="M1666 470h60" />
<path d="M2073 297h7v7h-7z" stroke="none" fill="#102235" />
<path d="M2073 307h7v7h-7z" stroke="none" fill="#102235" />
<path d="M2446 630h60v-350h110" />
</g>
<g stroke="#41619f" stroke-width="4">
<path d="M2406 420h130" />
<path d="M456 510h40v-180h50" />
</g>
<g>
<path d="M226 400h-60v-390h320v520h-30" />
<path d="M486 60h1160v120h60" />
<path d="M1646 60h860v140h110" />
<path d="M484 58h5v5h-5z" stroke="none" fill="#102235" />
<path d="M1644 58h5v5h-5z" stroke="none" fill="#102235" />
</g>
<g stroke="#41619f" stroke-width="4">
<path d="M226 320h-30v-280h280v60h-20" />
<path d="M1286 650h-70v-340h420v80h-20" />
</g>
<g stroke-width="3">
<path d="M1066 470h100v-30h70" />
<path d="M1066 370h110v90h60" />
</g>
</g>
</svg>
